%
M48
M72
T01C0.0150
T02C0.0400
T03C0.1300
%
T01
X7834Y4875
X8334Y8375
X8834Y10375
X9834Y10375
X10334Y11875
X8334Y11875
X8334Y13875
X9134Y14875
X9834Y14875
X10334Y13875
X10334Y17875
X10334Y20375
X7834Y25075
X8334Y28575
X8834Y30575
X9834Y30575
X10334Y32075
X8334Y32075
X8334Y34075
X9134Y35075
X9834Y35075
X10334Y34075
X10334Y38075
X10334Y40575
X7834Y45275
X8334Y48775
X8834Y50775
X9834Y50775
X10334Y52275
X8334Y52275
X8334Y54275
X9134Y55275
X9834Y55275
X10334Y54275
X10334Y58275
X10334Y60775
X17534Y54275
X18334Y55275
X19034Y55275
X19534Y54275
X19534Y52275
X19034Y50775
X18034Y50775
X17534Y52275
X17534Y48775
X17034Y45275
X19534Y40575
X19534Y38075
X19034Y35075
X18334Y35075
X17534Y34075
X17534Y32075
X18034Y30575
X19034Y30575
X19534Y32075
X19534Y34075
X17534Y28575
X17034Y25075
X19534Y20375
X19534Y17875
X19034Y14875
X18334Y14875
X17534Y13875
X17534Y11875
X18034Y10375
X19034Y10375
X19534Y11875
X19534Y13875
X17534Y8375
X17034Y4875
X26234Y4875
X26734Y8375
X27234Y10375
X28234Y10375
X28734Y11875
X28734Y13875
X28234Y14875
X27534Y14875
X26734Y13875
X26734Y11875
X28734Y17875
X28734Y20375
X26234Y25075
X26734Y28575
X27234Y30575
X28234Y30575
X28734Y32075
X28734Y34075
X28234Y35075
X27534Y35075
X26734Y34075
X26734Y32075
X28734Y38075
X28734Y40575
X26234Y45275
X26734Y48775
X27234Y50775
X28234Y50775
X28734Y52275
X28734Y54275
X28234Y55275
X27534Y55275
X26734Y54275
X26734Y52275
X28734Y58275
X28734Y60775
X35934Y54275
X36734Y55275
X37434Y55275
X37934Y54275
X37934Y52275
X37434Y50775
X36434Y50775
X35934Y52275
X35934Y48775
X35434Y45275
X37934Y40575
X37934Y38075
X37434Y35075
X36734Y35075
X35934Y34075
X35934Y32075
X36434Y30575
X37434Y30575
X37934Y32075
X37934Y34075
X35934Y28575
X35434Y25075
X37934Y20375
X37934Y17875
X37434Y14875
X36734Y14875
X35934Y13875
X35934Y11875
X36434Y10375
X37434Y10375
X37934Y11875
X37934Y13875
X35934Y8375
X35434Y4875
X44634Y4875
X45134Y8375
X45634Y10375
X46634Y10375
X47134Y11875
X45134Y11875
X45134Y13875
X45934Y14875
X46634Y14875
X47134Y13875
X47134Y17875
X47134Y20375
X44634Y25075
X45134Y28575
X45634Y30575
X46634Y30575
X47134Y32075
X45134Y32075
X45134Y34075
X45934Y35075
X46634Y35075
X47134Y34075
X47134Y38075
X47134Y40575
X44634Y45275
X45134Y48775
X45634Y50775
X46634Y50775
X47134Y52275
X45134Y52275
X45134Y54275
X45934Y55275
X46634Y55275
X47134Y54275
X47134Y58275
X47134Y60775
X37934Y60775
X37934Y58275
X19534Y58275
X19534Y60775
T02
X22534Y60775
X22534Y59775
X22534Y58775
X22534Y57775
X22534Y56775
X22534Y55775
X22534Y54775
X22534Y53775
X22534Y52775
X22534Y51775
X22534Y50775
X22534Y49775
X22534Y48775
X22534Y47775
X22534Y46775
X22534Y45775
X23734Y49775
X23734Y50775
X23734Y51775
X23734Y52775
X23734Y53775
X23734Y54775
X23734Y55775
X23734Y56775
X23734Y57775
X23734Y58775
X23734Y59775
X23734Y60775
X31734Y60775
X31734Y59775
X31734Y58775
X31734Y57775
X31734Y56775
X31734Y55775
X31734Y54775
X31734Y53775
X31734Y52775
X31734Y51775
X31734Y50775
X31734Y49775
X31734Y48775
X31734Y47775
X31734Y46775
X31734Y45775
X32934Y49775
X32934Y50775
X32934Y51775
X32934Y52775
X32934Y53775
X32934Y54775
X32934Y55775
X32934Y56775
X32934Y57775
X32934Y58775
X32934Y59775
X32934Y60775
X40934Y60775
X40934Y59775
X40934Y58775
X40934Y57775
X40934Y56775
X40934Y55775
X40934Y54775
X40934Y53775
X40934Y52775
X40934Y51775
X40934Y50775
X40934Y49775
X40934Y48775
X40934Y47775
X40934Y46775
X40934Y45775
X42134Y49775
X42134Y50775
X42134Y51775
X42134Y52775
X42134Y53775
X42134Y54775
X42134Y55775
X42134Y56775
X42134Y57775
X42134Y58775
X42134Y59775
X42134Y60775
X50134Y60775
X50134Y59775
X50134Y58775
X50134Y57775
X50134Y56775
X50134Y55775
X50134Y54775
X50134Y53775
X50134Y52775
X50134Y51775
X50134Y50775
X50134Y49775
X50134Y48775
X50134Y47775
X50134Y46775
X50134Y45775
X50134Y40575
X50134Y39575
X50134Y38575
X50134Y37575
X50134Y36575
X50134Y35575
X50134Y34575
X50134Y33575
X50134Y32575
X50134Y31575
X50134Y30575
X50134Y29575
X50134Y28575
X50134Y27575
X50134Y26575
X50134Y25575
X50134Y20375
X50134Y19375
X50134Y18375
X50134Y17375
X50134Y16375
X50134Y15375
X50134Y14375
X50134Y13375
X50134Y12375
X50134Y11375
X50134Y10375
X50134Y9375
X50134Y8375
X50134Y7375
X50134Y6375
X50134Y5375
X42134Y9375
X42134Y10375
X42134Y11375
X42134Y12375
X42134Y13375
X42134Y14375
X42134Y15375
X42134Y16375
X42134Y17375
X42134Y18375
X42134Y19375
X42134Y20375
X40934Y20375
X40934Y19375
X40934Y18375
X40934Y17375
X40934Y16375
X40934Y15375
X40934Y14375
X40934Y13375
X40934Y12375
X40934Y11375
X40934Y10375
X40934Y9375
X40934Y8375
X40934Y7375
X40934Y6375
X40934Y5375
X32934Y9375
X32934Y10375
X32934Y11375
X32934Y12375
X32934Y13375
X32934Y14375
X32934Y15375
X32934Y16375
X32934Y17375
X32934Y18375
X32934Y19375
X32934Y20375
X31734Y20375
X31734Y19375
X31734Y18375
X31734Y17375
X31734Y16375
X31734Y15375
X31734Y14375
X31734Y13375
X31734Y12375
X31734Y11375
X31734Y10375
X31734Y9375
X31734Y8375
X31734Y7375
X31734Y6375
X31734Y5375
X23734Y9375
X23734Y10375
X23734Y11375
X23734Y12375
X23734Y13375
X23734Y14375
X23734Y15375
X23734Y16375
X23734Y17375
X23734Y18375
X23734Y19375
X23734Y20375
X22534Y20375
X22534Y19375
X22534Y18375
X22534Y17375
X22534Y16375
X22534Y15375
X22534Y14375
X22534Y13375
X22534Y12375
X22534Y11375
X22534Y10375
X22534Y9375
X22534Y8375
X22534Y7375
X22534Y6375
X22534Y5375
X14534Y9375
X14534Y10375
X14534Y11375
X14534Y12375
X14534Y13375
X14534Y14375
X14534Y15375
X14534Y16375
X14534Y17375
X14534Y18375
X14534Y19375
X14534Y20375
X13334Y20375
X13334Y19375
X13334Y18375
X13334Y17375
X13334Y16375
X13334Y15375
X13334Y14375
X13334Y13375
X13334Y12375
X13334Y11375
X13334Y10375
X13334Y9375
X13334Y8375
X13334Y7375
X13334Y6375
X13334Y5375
X5334Y9375
X5334Y10375
X5334Y11375
X5334Y12375
X5334Y13375
X5334Y14375
X5334Y15375
X5334Y16375
X5334Y17375
X5334Y18375
X5334Y19375
X5334Y20375
X5334Y29575
X5334Y30575
X5334Y31575
X5334Y32575
X5334Y33575
X5334Y34575
X5334Y35575
X5334Y36575
X5334Y37575
X5334Y38575
X5334Y39575
X5334Y40575
X13334Y40575
X13334Y39575
X13334Y38575
X13334Y37575
X13334Y36575
X13334Y35575
X13334Y34575
X13334Y33575
X13334Y32575
X13334Y31575
X13334Y30575
X13334Y29575
X13334Y28575
X13334Y27575
X13334Y26575
X13334Y25575
X14534Y29575
X14534Y30575
X14534Y31575
X14534Y32575
X14534Y33575
X14534Y34575
X14534Y35575
X14534Y36575
X14534Y37575
X14534Y38575
X14534Y39575
X14534Y40575
X13334Y45775
X13334Y46775
X13334Y47775
X13334Y48775
X13334Y49775
X13334Y50775
X13334Y51775
X13334Y52775
X13334Y53775
X13334Y54775
X13334Y55775
X13334Y56775
X13334Y57775
X13334Y58775
X13334Y59775
X13334Y60775
X14534Y60775
X14534Y59775
X14534Y58775
X14534Y57775
X14534Y56775
X14534Y55775
X14534Y54775
X14534Y53775
X14534Y52775
X14534Y51775
X14534Y50775
X14534Y49775
X22534Y40575
X22534Y39575
X22534Y38575
X22534Y37575
X22534Y36575
X22534Y35575
X22534Y34575
X22534Y33575
X22534Y32575
X22534Y31575
X22534Y30575
X22534Y29575
X22534Y28575
X22534Y27575
X22534Y26575
X22534Y25575
X23734Y29575
X23734Y30575
X23734Y31575
X23734Y32575
X23734Y33575
X23734Y34575
X23734Y35575
X23734Y36575
X23734Y37575
X23734Y38575
X23734Y39575
X23734Y40575
X31734Y40575
X31734Y39575
X31734Y38575
X31734Y37575
X31734Y36575
X31734Y35575
X31734Y34575
X31734Y33575
X31734Y32575
X31734Y31575
X31734Y30575
X31734Y29575
X31734Y28575
X31734Y27575
X31734Y26575
X31734Y25575
X32934Y29575
X32934Y30575
X32934Y31575
X32934Y32575
X32934Y33575
X32934Y34575
X32934Y35575
X32934Y36575
X32934Y37575
X32934Y38575
X32934Y39575
X32934Y40575
X40934Y40575
X40934Y39575
X40934Y38575
X40934Y37575
X40934Y36575
X40934Y35575
X40934Y34575
X40934Y33575
X40934Y32575
X40934Y31575
X40934Y30575
X40934Y29575
X40934Y28575
X40934Y27575
X40934Y26575
X40934Y25575
X42134Y29575
X42134Y30575
X42134Y31575
X42134Y32575
X42134Y33575
X42134Y34575
X42134Y35575
X42134Y36575
X42134Y37575
X42134Y38575
X42134Y39575
X42134Y40575
X5334Y49775
X5334Y50775
X5334Y51775
X5334Y52775
X5334Y53775
X5334Y54775
X5334Y55775
X5334Y56775
X5334Y57775
X5334Y58775
X5334Y59775
X5334Y60775
T03
X5834Y3875
X12834Y3875
X15034Y3875
X22034Y3875
X24234Y3875
X31234Y3875
X33434Y3875
X40434Y3875
X42634Y3875
X49634Y3875
X49634Y21875
X49634Y24075
X42634Y24075
X40434Y24075
X40434Y21875
X42634Y21875
X33434Y21875
X31234Y21875
X31234Y24075
X33434Y24075
X24234Y24075
X22034Y24075
X22034Y21875
X24234Y21875
X15034Y21875
X12834Y21875
X12834Y24075
X15034Y24075
X5834Y24075
X5834Y21875
X5834Y42075
X5834Y44275
X12834Y44275
X15034Y44275
X15034Y42075
X12834Y42075
X22034Y42075
X24234Y42075
X24234Y44275
X22034Y44275
X31234Y44275
X33434Y44275
X33434Y42075
X31234Y42075
X40434Y42075
X42634Y42075
X42634Y44275
X40434Y44275
X49634Y44275
X49634Y42075
X49634Y62275
X42634Y62275
X40434Y62275
X33434Y62275
X31234Y62275
X24234Y62275
X22034Y62275
X15034Y62275
X12834Y62275
X5834Y62275
M30
