G75*
%MOIN*%
%OFA0B0*%
%FSLAX25Y25*%
%IPPOS*%
%LPD*%
%AMOC8*
5,1,8,0,0,1.08239X$1,22.5*
%
%ADD10R,0.05524X0.08674*%
%ADD11R,0.03162X0.06115*%
%ADD12R,0.03162X0.06902*%
%ADD13R,0.03300X0.05800*%
%ADD14R,0.05131X0.04737*%
%ADD15C,0.06800*%
%ADD16C,0.13800*%
%ADD17C,0.04737*%
%ADD18C,0.05000*%
%ADD19C,0.06706*%
D10*
X0082318Y0034281D03*
X0104365Y0034281D03*
X0104452Y0101348D03*
X0082405Y0101348D03*
X0082232Y0156152D03*
X0104279Y0156152D03*
X0104365Y0223219D03*
X0104365Y0236281D03*
X0082318Y0236281D03*
X0082318Y0223219D03*
X0082405Y0303348D03*
X0104452Y0303348D03*
X0104279Y0358152D03*
X0082232Y0358152D03*
X0082318Y0425219D03*
X0082318Y0438281D03*
X0104365Y0438281D03*
X0104365Y0425219D03*
X0174318Y0425219D03*
X0174318Y0438281D03*
X0196365Y0438281D03*
X0196365Y0425219D03*
X0196279Y0358152D03*
X0174232Y0358152D03*
X0174405Y0303348D03*
X0196452Y0303348D03*
X0196365Y0236281D03*
X0196365Y0223219D03*
X0174318Y0223219D03*
X0174318Y0236281D03*
X0174232Y0156152D03*
X0196279Y0156152D03*
X0196452Y0101348D03*
X0174405Y0101348D03*
X0174318Y0034281D03*
X0196365Y0034281D03*
X0266318Y0034281D03*
X0288365Y0034281D03*
X0288452Y0101348D03*
X0266405Y0101348D03*
X0266232Y0156152D03*
X0288279Y0156152D03*
X0288365Y0223219D03*
X0288365Y0236281D03*
X0266318Y0236281D03*
X0266318Y0223219D03*
X0266405Y0303348D03*
X0288452Y0303348D03*
X0288279Y0358152D03*
X0266232Y0358152D03*
X0266318Y0425219D03*
X0266318Y0438281D03*
X0288365Y0438281D03*
X0288365Y0425219D03*
X0358318Y0425219D03*
X0358318Y0438281D03*
X0380365Y0438281D03*
X0380365Y0425219D03*
X0380279Y0358152D03*
X0358232Y0358152D03*
X0358405Y0303348D03*
X0380452Y0303348D03*
X0380365Y0236281D03*
X0380365Y0223219D03*
X0358318Y0223219D03*
X0358318Y0236281D03*
X0358232Y0156152D03*
X0380279Y0156152D03*
X0380452Y0101348D03*
X0358405Y0101348D03*
X0358318Y0034281D03*
X0380365Y0034281D03*
X0450318Y0034281D03*
X0472365Y0034281D03*
X0472452Y0101348D03*
X0450405Y0101348D03*
X0450232Y0156152D03*
X0472279Y0156152D03*
X0472365Y0223219D03*
X0472365Y0236281D03*
X0450318Y0236281D03*
X0450318Y0223219D03*
X0450405Y0303348D03*
X0472452Y0303348D03*
X0472279Y0358152D03*
X0450232Y0358152D03*
X0450318Y0425219D03*
X0450318Y0438281D03*
X0472365Y0438281D03*
X0472365Y0425219D03*
X0472452Y0505348D03*
X0450405Y0505348D03*
X0450232Y0560152D03*
X0472279Y0560152D03*
X0472365Y0627219D03*
X0450318Y0627219D03*
X0380365Y0627219D03*
X0358318Y0627219D03*
X0358232Y0560152D03*
X0380279Y0560152D03*
X0380452Y0505348D03*
X0358405Y0505348D03*
X0288452Y0505348D03*
X0266405Y0505348D03*
X0266232Y0560152D03*
X0288279Y0560152D03*
X0288365Y0627219D03*
X0266318Y0627219D03*
X0196365Y0627219D03*
X0174318Y0627219D03*
X0174232Y0560152D03*
X0196279Y0560152D03*
X0196452Y0505348D03*
X0174405Y0505348D03*
X0104452Y0505348D03*
X0082405Y0505348D03*
X0082232Y0560152D03*
X0104279Y0560152D03*
X0104365Y0627219D03*
X0082318Y0627219D03*
D11*
X0087436Y0612750D03*
X0091373Y0612750D03*
X0095310Y0612750D03*
X0099247Y0612750D03*
X0179436Y0612750D03*
X0183373Y0612750D03*
X0187310Y0612750D03*
X0191247Y0612750D03*
X0271436Y0612750D03*
X0275373Y0612750D03*
X0279310Y0612750D03*
X0283247Y0612750D03*
X0363436Y0612750D03*
X0367373Y0612750D03*
X0371310Y0612750D03*
X0375247Y0612750D03*
X0455436Y0612750D03*
X0459373Y0612750D03*
X0463310Y0612750D03*
X0467247Y0612750D03*
X0467247Y0452750D03*
X0463310Y0452750D03*
X0459373Y0452750D03*
X0455436Y0452750D03*
X0455436Y0410750D03*
X0459373Y0410750D03*
X0463310Y0410750D03*
X0467247Y0410750D03*
X0375247Y0410750D03*
X0371310Y0410750D03*
X0367373Y0410750D03*
X0363436Y0410750D03*
X0363436Y0452750D03*
X0367373Y0452750D03*
X0371310Y0452750D03*
X0375247Y0452750D03*
X0283247Y0452750D03*
X0279310Y0452750D03*
X0275373Y0452750D03*
X0271436Y0452750D03*
X0271436Y0410750D03*
X0275373Y0410750D03*
X0279310Y0410750D03*
X0283247Y0410750D03*
X0191247Y0410750D03*
X0187310Y0410750D03*
X0183373Y0410750D03*
X0179436Y0410750D03*
X0179436Y0452750D03*
X0183373Y0452750D03*
X0187310Y0452750D03*
X0191247Y0452750D03*
X0099247Y0452750D03*
X0095310Y0452750D03*
X0091373Y0452750D03*
X0087436Y0452750D03*
X0087436Y0410750D03*
X0091373Y0410750D03*
X0095310Y0410750D03*
X0099247Y0410750D03*
X0099247Y0250750D03*
X0095310Y0250750D03*
X0091373Y0250750D03*
X0087436Y0250750D03*
X0087436Y0208750D03*
X0091373Y0208750D03*
X0095310Y0208750D03*
X0099247Y0208750D03*
X0179436Y0208750D03*
X0183373Y0208750D03*
X0187310Y0208750D03*
X0191247Y0208750D03*
X0191247Y0250750D03*
X0187310Y0250750D03*
X0183373Y0250750D03*
X0179436Y0250750D03*
X0271436Y0250750D03*
X0275373Y0250750D03*
X0279310Y0250750D03*
X0283247Y0250750D03*
X0283247Y0208750D03*
X0279310Y0208750D03*
X0275373Y0208750D03*
X0271436Y0208750D03*
X0363436Y0208750D03*
X0367373Y0208750D03*
X0371310Y0208750D03*
X0375247Y0208750D03*
X0375247Y0250750D03*
X0371310Y0250750D03*
X0367373Y0250750D03*
X0363436Y0250750D03*
X0455436Y0250750D03*
X0459373Y0250750D03*
X0463310Y0250750D03*
X0467247Y0250750D03*
X0467247Y0208750D03*
X0463310Y0208750D03*
X0459373Y0208750D03*
X0455436Y0208750D03*
X0455436Y0048750D03*
X0459373Y0048750D03*
X0463310Y0048750D03*
X0467247Y0048750D03*
X0375247Y0048750D03*
X0371310Y0048750D03*
X0367373Y0048750D03*
X0363436Y0048750D03*
X0283247Y0048750D03*
X0279310Y0048750D03*
X0275373Y0048750D03*
X0271436Y0048750D03*
X0191247Y0048750D03*
X0187310Y0048750D03*
X0183373Y0048750D03*
X0179436Y0048750D03*
X0099247Y0048750D03*
X0095310Y0048750D03*
X0091373Y0048750D03*
X0087436Y0048750D03*
D12*
X0087523Y0091801D03*
X0091460Y0091801D03*
X0095397Y0091801D03*
X0099334Y0091801D03*
X0099161Y0165699D03*
X0095224Y0165699D03*
X0091287Y0165699D03*
X0087350Y0165699D03*
X0179350Y0165699D03*
X0183287Y0165699D03*
X0187224Y0165699D03*
X0191161Y0165699D03*
X0191334Y0091801D03*
X0187397Y0091801D03*
X0183460Y0091801D03*
X0179523Y0091801D03*
X0271523Y0091801D03*
X0275460Y0091801D03*
X0279397Y0091801D03*
X0283334Y0091801D03*
X0283161Y0165699D03*
X0279224Y0165699D03*
X0275287Y0165699D03*
X0271350Y0165699D03*
X0363350Y0165699D03*
X0367287Y0165699D03*
X0371224Y0165699D03*
X0375161Y0165699D03*
X0375334Y0091801D03*
X0371397Y0091801D03*
X0367460Y0091801D03*
X0363523Y0091801D03*
X0455523Y0091801D03*
X0459460Y0091801D03*
X0463397Y0091801D03*
X0467334Y0091801D03*
X0467161Y0165699D03*
X0463224Y0165699D03*
X0459287Y0165699D03*
X0455350Y0165699D03*
X0455523Y0293801D03*
X0459460Y0293801D03*
X0463397Y0293801D03*
X0467334Y0293801D03*
X0467161Y0367699D03*
X0463224Y0367699D03*
X0459287Y0367699D03*
X0455350Y0367699D03*
X0375161Y0367699D03*
X0371224Y0367699D03*
X0367287Y0367699D03*
X0363350Y0367699D03*
X0363523Y0293801D03*
X0367460Y0293801D03*
X0371397Y0293801D03*
X0375334Y0293801D03*
X0283334Y0293801D03*
X0279397Y0293801D03*
X0275460Y0293801D03*
X0271523Y0293801D03*
X0271350Y0367699D03*
X0275287Y0367699D03*
X0279224Y0367699D03*
X0283161Y0367699D03*
X0191161Y0367699D03*
X0187224Y0367699D03*
X0183287Y0367699D03*
X0179350Y0367699D03*
X0179523Y0293801D03*
X0183460Y0293801D03*
X0187397Y0293801D03*
X0191334Y0293801D03*
X0099334Y0293801D03*
X0095397Y0293801D03*
X0091460Y0293801D03*
X0087523Y0293801D03*
X0087350Y0367699D03*
X0091287Y0367699D03*
X0095224Y0367699D03*
X0099161Y0367699D03*
X0099334Y0495801D03*
X0095397Y0495801D03*
X0091460Y0495801D03*
X0087523Y0495801D03*
X0087350Y0569699D03*
X0091287Y0569699D03*
X0095224Y0569699D03*
X0099161Y0569699D03*
X0179350Y0569699D03*
X0183287Y0569699D03*
X0187224Y0569699D03*
X0191161Y0569699D03*
X0191334Y0495801D03*
X0187397Y0495801D03*
X0183460Y0495801D03*
X0179523Y0495801D03*
X0271523Y0495801D03*
X0275460Y0495801D03*
X0279397Y0495801D03*
X0283334Y0495801D03*
X0283161Y0569699D03*
X0279224Y0569699D03*
X0275287Y0569699D03*
X0271350Y0569699D03*
X0363350Y0569699D03*
X0367287Y0569699D03*
X0371224Y0569699D03*
X0375161Y0569699D03*
X0375334Y0495801D03*
X0371397Y0495801D03*
X0367460Y0495801D03*
X0363523Y0495801D03*
X0455523Y0495801D03*
X0459460Y0495801D03*
X0463397Y0495801D03*
X0467334Y0495801D03*
X0467161Y0569699D03*
X0463224Y0569699D03*
X0459287Y0569699D03*
X0455350Y0569699D03*
D13*
X0458142Y0532750D03*
X0461342Y0532750D03*
X0464542Y0532750D03*
X0372542Y0532750D03*
X0369342Y0532750D03*
X0366142Y0532750D03*
X0280542Y0532750D03*
X0277342Y0532750D03*
X0274142Y0532750D03*
X0188542Y0532750D03*
X0185342Y0532750D03*
X0182142Y0532750D03*
X0096542Y0532750D03*
X0093342Y0532750D03*
X0090142Y0532750D03*
X0090142Y0330750D03*
X0093342Y0330750D03*
X0096542Y0330750D03*
X0182142Y0330750D03*
X0185342Y0330750D03*
X0188542Y0330750D03*
X0274142Y0330750D03*
X0277342Y0330750D03*
X0280542Y0330750D03*
X0366142Y0330750D03*
X0369342Y0330750D03*
X0372542Y0330750D03*
X0458142Y0330750D03*
X0461342Y0330750D03*
X0464542Y0330750D03*
X0464542Y0128750D03*
X0461342Y0128750D03*
X0458142Y0128750D03*
X0372542Y0128750D03*
X0369342Y0128750D03*
X0366142Y0128750D03*
X0280542Y0128750D03*
X0277342Y0128750D03*
X0274142Y0128750D03*
X0188542Y0128750D03*
X0185342Y0128750D03*
X0182142Y0128750D03*
X0096542Y0128750D03*
X0093342Y0128750D03*
X0090142Y0128750D03*
D14*
X0081688Y0128750D03*
X0074995Y0128750D03*
X0104995Y0128750D03*
X0111688Y0128750D03*
X0166995Y0128750D03*
X0173688Y0128750D03*
X0196995Y0128750D03*
X0203688Y0128750D03*
X0258995Y0128750D03*
X0265688Y0128750D03*
X0288995Y0128750D03*
X0295688Y0128750D03*
X0350995Y0128750D03*
X0357688Y0128750D03*
X0380995Y0128750D03*
X0387688Y0128750D03*
X0442995Y0128750D03*
X0449688Y0128750D03*
X0472995Y0128750D03*
X0479688Y0128750D03*
X0479688Y0330750D03*
X0472995Y0330750D03*
X0449688Y0330750D03*
X0442995Y0330750D03*
X0387688Y0330750D03*
X0380995Y0330750D03*
X0357688Y0330750D03*
X0350995Y0330750D03*
X0295688Y0330750D03*
X0288995Y0330750D03*
X0265688Y0330750D03*
X0258995Y0330750D03*
X0203688Y0330750D03*
X0196995Y0330750D03*
X0173688Y0330750D03*
X0166995Y0330750D03*
X0111688Y0330750D03*
X0104995Y0330750D03*
X0081688Y0330750D03*
X0074995Y0330750D03*
X0074995Y0532750D03*
X0081688Y0532750D03*
X0104995Y0532750D03*
X0111688Y0532750D03*
X0166995Y0532750D03*
X0173688Y0532750D03*
X0196995Y0532750D03*
X0203688Y0532750D03*
X0258995Y0532750D03*
X0265688Y0532750D03*
X0288995Y0532750D03*
X0295688Y0532750D03*
X0350995Y0532750D03*
X0357688Y0532750D03*
X0380995Y0532750D03*
X0387688Y0532750D03*
X0442995Y0532750D03*
X0449688Y0532750D03*
X0472995Y0532750D03*
X0479688Y0532750D03*
D15*
X0501342Y0527750D03*
X0501342Y0537750D03*
X0501342Y0547750D03*
X0501342Y0557750D03*
X0501342Y0567750D03*
X0501342Y0577750D03*
X0501342Y0587750D03*
X0501342Y0597750D03*
X0501342Y0607750D03*
X0421342Y0607750D03*
X0421342Y0597750D03*
X0421342Y0587750D03*
X0421342Y0577750D03*
X0421342Y0567750D03*
X0421342Y0557750D03*
X0421342Y0547750D03*
X0421342Y0537750D03*
X0421342Y0527750D03*
X0421342Y0517750D03*
X0421342Y0507750D03*
X0421342Y0497750D03*
X0409342Y0497750D03*
X0409342Y0487750D03*
X0409342Y0477750D03*
X0409342Y0467750D03*
X0409342Y0457750D03*
X0409342Y0507750D03*
X0409342Y0517750D03*
X0409342Y0527750D03*
X0409342Y0537750D03*
X0409342Y0547750D03*
X0409342Y0557750D03*
X0409342Y0567750D03*
X0409342Y0577750D03*
X0409342Y0587750D03*
X0409342Y0597750D03*
X0409342Y0607750D03*
X0329342Y0607750D03*
X0329342Y0597750D03*
X0329342Y0587750D03*
X0329342Y0577750D03*
X0329342Y0567750D03*
X0329342Y0557750D03*
X0329342Y0547750D03*
X0329342Y0537750D03*
X0329342Y0527750D03*
X0329342Y0517750D03*
X0329342Y0507750D03*
X0329342Y0497750D03*
X0317342Y0497750D03*
X0317342Y0487750D03*
X0317342Y0477750D03*
X0317342Y0467750D03*
X0317342Y0457750D03*
X0317342Y0507750D03*
X0317342Y0517750D03*
X0317342Y0527750D03*
X0317342Y0537750D03*
X0317342Y0547750D03*
X0317342Y0557750D03*
X0317342Y0567750D03*
X0317342Y0577750D03*
X0317342Y0587750D03*
X0317342Y0597750D03*
X0317342Y0607750D03*
X0237342Y0607750D03*
X0237342Y0597750D03*
X0237342Y0587750D03*
X0237342Y0577750D03*
X0237342Y0567750D03*
X0237342Y0557750D03*
X0237342Y0547750D03*
X0237342Y0537750D03*
X0237342Y0527750D03*
X0237342Y0517750D03*
X0237342Y0507750D03*
X0237342Y0497750D03*
X0225342Y0497750D03*
X0225342Y0487750D03*
X0225342Y0477750D03*
X0225342Y0467750D03*
X0225342Y0457750D03*
X0225342Y0507750D03*
X0225342Y0517750D03*
X0225342Y0527750D03*
X0225342Y0537750D03*
X0225342Y0547750D03*
X0225342Y0557750D03*
X0225342Y0567750D03*
X0225342Y0577750D03*
X0225342Y0587750D03*
X0225342Y0597750D03*
X0225342Y0607750D03*
X0145342Y0607750D03*
X0145342Y0597750D03*
X0145342Y0587750D03*
X0145342Y0577750D03*
X0145342Y0567750D03*
X0145342Y0557750D03*
X0145342Y0547750D03*
X0145342Y0537750D03*
X0145342Y0527750D03*
X0145342Y0517750D03*
X0145342Y0507750D03*
X0145342Y0497750D03*
X0133342Y0497750D03*
X0133342Y0487750D03*
X0133342Y0477750D03*
X0133342Y0467750D03*
X0133342Y0457750D03*
X0133342Y0507750D03*
X0133342Y0517750D03*
X0133342Y0527750D03*
X0133342Y0537750D03*
X0133342Y0547750D03*
X0133342Y0557750D03*
X0133342Y0567750D03*
X0133342Y0577750D03*
X0133342Y0587750D03*
X0133342Y0597750D03*
X0133342Y0607750D03*
X0053342Y0607750D03*
X0053342Y0597750D03*
X0053342Y0587750D03*
X0053342Y0577750D03*
X0053342Y0567750D03*
X0053342Y0557750D03*
X0053342Y0547750D03*
X0053342Y0537750D03*
X0053342Y0527750D03*
X0053342Y0517750D03*
X0053342Y0507750D03*
X0053342Y0497750D03*
X0053342Y0405750D03*
X0053342Y0395750D03*
X0053342Y0385750D03*
X0053342Y0375750D03*
X0053342Y0365750D03*
X0053342Y0355750D03*
X0053342Y0345750D03*
X0053342Y0335750D03*
X0053342Y0325750D03*
X0053342Y0315750D03*
X0053342Y0305750D03*
X0053342Y0295750D03*
X0133342Y0295750D03*
X0133342Y0305750D03*
X0133342Y0315750D03*
X0133342Y0325750D03*
X0133342Y0335750D03*
X0133342Y0345750D03*
X0133342Y0355750D03*
X0133342Y0365750D03*
X0133342Y0375750D03*
X0133342Y0385750D03*
X0133342Y0395750D03*
X0133342Y0405750D03*
X0145342Y0405750D03*
X0145342Y0395750D03*
X0145342Y0385750D03*
X0145342Y0375750D03*
X0145342Y0365750D03*
X0145342Y0355750D03*
X0145342Y0345750D03*
X0145342Y0335750D03*
X0145342Y0325750D03*
X0145342Y0315750D03*
X0145342Y0305750D03*
X0145342Y0295750D03*
X0133342Y0285750D03*
X0133342Y0275750D03*
X0133342Y0265750D03*
X0133342Y0255750D03*
X0133342Y0203750D03*
X0133342Y0193750D03*
X0133342Y0183750D03*
X0133342Y0173750D03*
X0133342Y0163750D03*
X0133342Y0153750D03*
X0133342Y0143750D03*
X0133342Y0133750D03*
X0133342Y0123750D03*
X0133342Y0113750D03*
X0133342Y0103750D03*
X0133342Y0093750D03*
X0133342Y0083750D03*
X0133342Y0073750D03*
X0133342Y0063750D03*
X0133342Y0053750D03*
X0145342Y0093750D03*
X0145342Y0103750D03*
X0145342Y0113750D03*
X0145342Y0123750D03*
X0145342Y0133750D03*
X0145342Y0143750D03*
X0145342Y0153750D03*
X0145342Y0163750D03*
X0145342Y0173750D03*
X0145342Y0183750D03*
X0145342Y0193750D03*
X0145342Y0203750D03*
X0225342Y0203750D03*
X0225342Y0193750D03*
X0225342Y0183750D03*
X0225342Y0173750D03*
X0225342Y0163750D03*
X0225342Y0153750D03*
X0225342Y0143750D03*
X0225342Y0133750D03*
X0225342Y0123750D03*
X0225342Y0113750D03*
X0225342Y0103750D03*
X0225342Y0093750D03*
X0225342Y0083750D03*
X0225342Y0073750D03*
X0225342Y0063750D03*
X0225342Y0053750D03*
X0237342Y0093750D03*
X0237342Y0103750D03*
X0237342Y0113750D03*
X0237342Y0123750D03*
X0237342Y0133750D03*
X0237342Y0143750D03*
X0237342Y0153750D03*
X0237342Y0163750D03*
X0237342Y0173750D03*
X0237342Y0183750D03*
X0237342Y0193750D03*
X0237342Y0203750D03*
X0225342Y0255750D03*
X0225342Y0265750D03*
X0225342Y0275750D03*
X0225342Y0285750D03*
X0225342Y0295750D03*
X0225342Y0305750D03*
X0225342Y0315750D03*
X0225342Y0325750D03*
X0225342Y0335750D03*
X0225342Y0345750D03*
X0225342Y0355750D03*
X0225342Y0365750D03*
X0225342Y0375750D03*
X0225342Y0385750D03*
X0225342Y0395750D03*
X0225342Y0405750D03*
X0237342Y0405750D03*
X0237342Y0395750D03*
X0237342Y0385750D03*
X0237342Y0375750D03*
X0237342Y0365750D03*
X0237342Y0355750D03*
X0237342Y0345750D03*
X0237342Y0335750D03*
X0237342Y0325750D03*
X0237342Y0315750D03*
X0237342Y0305750D03*
X0237342Y0295750D03*
X0317342Y0295750D03*
X0317342Y0305750D03*
X0317342Y0315750D03*
X0317342Y0325750D03*
X0317342Y0335750D03*
X0317342Y0345750D03*
X0317342Y0355750D03*
X0317342Y0365750D03*
X0317342Y0375750D03*
X0317342Y0385750D03*
X0317342Y0395750D03*
X0317342Y0405750D03*
X0329342Y0405750D03*
X0329342Y0395750D03*
X0329342Y0385750D03*
X0329342Y0375750D03*
X0329342Y0365750D03*
X0329342Y0355750D03*
X0329342Y0345750D03*
X0329342Y0335750D03*
X0329342Y0325750D03*
X0329342Y0315750D03*
X0329342Y0305750D03*
X0329342Y0295750D03*
X0317342Y0285750D03*
X0317342Y0275750D03*
X0317342Y0265750D03*
X0317342Y0255750D03*
X0317342Y0203750D03*
X0317342Y0193750D03*
X0317342Y0183750D03*
X0317342Y0173750D03*
X0317342Y0163750D03*
X0317342Y0153750D03*
X0317342Y0143750D03*
X0317342Y0133750D03*
X0317342Y0123750D03*
X0317342Y0113750D03*
X0317342Y0103750D03*
X0317342Y0093750D03*
X0317342Y0083750D03*
X0317342Y0073750D03*
X0317342Y0063750D03*
X0317342Y0053750D03*
X0329342Y0093750D03*
X0329342Y0103750D03*
X0329342Y0113750D03*
X0329342Y0123750D03*
X0329342Y0133750D03*
X0329342Y0143750D03*
X0329342Y0153750D03*
X0329342Y0163750D03*
X0329342Y0173750D03*
X0329342Y0183750D03*
X0329342Y0193750D03*
X0329342Y0203750D03*
X0409342Y0203750D03*
X0409342Y0193750D03*
X0409342Y0183750D03*
X0409342Y0173750D03*
X0409342Y0163750D03*
X0409342Y0153750D03*
X0409342Y0143750D03*
X0409342Y0133750D03*
X0409342Y0123750D03*
X0409342Y0113750D03*
X0409342Y0103750D03*
X0409342Y0093750D03*
X0409342Y0083750D03*
X0409342Y0073750D03*
X0409342Y0063750D03*
X0409342Y0053750D03*
X0421342Y0093750D03*
X0421342Y0103750D03*
X0421342Y0113750D03*
X0421342Y0123750D03*
X0421342Y0133750D03*
X0421342Y0143750D03*
X0421342Y0153750D03*
X0421342Y0163750D03*
X0421342Y0173750D03*
X0421342Y0183750D03*
X0421342Y0193750D03*
X0421342Y0203750D03*
X0409342Y0255750D03*
X0409342Y0265750D03*
X0409342Y0275750D03*
X0409342Y0285750D03*
X0409342Y0295750D03*
X0409342Y0305750D03*
X0409342Y0315750D03*
X0409342Y0325750D03*
X0409342Y0335750D03*
X0409342Y0345750D03*
X0409342Y0355750D03*
X0409342Y0365750D03*
X0409342Y0375750D03*
X0409342Y0385750D03*
X0409342Y0395750D03*
X0409342Y0405750D03*
X0421342Y0405750D03*
X0421342Y0395750D03*
X0421342Y0385750D03*
X0421342Y0375750D03*
X0421342Y0365750D03*
X0421342Y0355750D03*
X0421342Y0345750D03*
X0421342Y0335750D03*
X0421342Y0325750D03*
X0421342Y0315750D03*
X0421342Y0305750D03*
X0421342Y0295750D03*
X0501342Y0295750D03*
X0501342Y0305750D03*
X0501342Y0315750D03*
X0501342Y0325750D03*
X0501342Y0335750D03*
X0501342Y0345750D03*
X0501342Y0355750D03*
X0501342Y0365750D03*
X0501342Y0375750D03*
X0501342Y0385750D03*
X0501342Y0395750D03*
X0501342Y0405750D03*
X0501342Y0457750D03*
X0501342Y0467750D03*
X0501342Y0477750D03*
X0501342Y0487750D03*
X0501342Y0497750D03*
X0501342Y0507750D03*
X0501342Y0517750D03*
X0501342Y0285750D03*
X0501342Y0275750D03*
X0501342Y0265750D03*
X0501342Y0255750D03*
X0501342Y0203750D03*
X0501342Y0193750D03*
X0501342Y0183750D03*
X0501342Y0173750D03*
X0501342Y0163750D03*
X0501342Y0153750D03*
X0501342Y0143750D03*
X0501342Y0133750D03*
X0501342Y0123750D03*
X0501342Y0113750D03*
X0501342Y0103750D03*
X0501342Y0093750D03*
X0501342Y0083750D03*
X0501342Y0073750D03*
X0501342Y0063750D03*
X0501342Y0053750D03*
X0053342Y0093750D03*
X0053342Y0103750D03*
X0053342Y0113750D03*
X0053342Y0123750D03*
X0053342Y0133750D03*
X0053342Y0143750D03*
X0053342Y0153750D03*
X0053342Y0163750D03*
X0053342Y0173750D03*
X0053342Y0183750D03*
X0053342Y0193750D03*
X0053342Y0203750D03*
D16*
X0058342Y0218750D03*
X0058342Y0240750D03*
X0128342Y0240750D03*
X0150342Y0240750D03*
X0150342Y0218750D03*
X0128342Y0218750D03*
X0220342Y0218750D03*
X0242342Y0218750D03*
X0242342Y0240750D03*
X0220342Y0240750D03*
X0312342Y0240750D03*
X0334342Y0240750D03*
X0334342Y0218750D03*
X0312342Y0218750D03*
X0404342Y0218750D03*
X0426342Y0218750D03*
X0426342Y0240750D03*
X0404342Y0240750D03*
X0496342Y0240750D03*
X0496342Y0218750D03*
X0496342Y0038750D03*
X0426342Y0038750D03*
X0404342Y0038750D03*
X0334342Y0038750D03*
X0312342Y0038750D03*
X0242342Y0038750D03*
X0220342Y0038750D03*
X0150342Y0038750D03*
X0128342Y0038750D03*
X0058342Y0038750D03*
X0058342Y0420750D03*
X0058342Y0442750D03*
X0128342Y0442750D03*
X0150342Y0442750D03*
X0150342Y0420750D03*
X0128342Y0420750D03*
X0220342Y0420750D03*
X0242342Y0420750D03*
X0242342Y0442750D03*
X0220342Y0442750D03*
X0312342Y0442750D03*
X0334342Y0442750D03*
X0334342Y0420750D03*
X0312342Y0420750D03*
X0404342Y0420750D03*
X0426342Y0420750D03*
X0426342Y0442750D03*
X0404342Y0442750D03*
X0496342Y0442750D03*
X0496342Y0420750D03*
X0496342Y0622750D03*
X0426342Y0622750D03*
X0404342Y0622750D03*
X0334342Y0622750D03*
X0312342Y0622750D03*
X0242342Y0622750D03*
X0220342Y0622750D03*
X0150342Y0622750D03*
X0128342Y0622750D03*
X0058342Y0622750D03*
D17*
X0053342Y0053750D03*
X0145342Y0053750D03*
X0237342Y0053750D03*
X0329342Y0053750D03*
X0421342Y0053750D03*
X0399342Y0203750D03*
X0421342Y0255750D03*
X0491342Y0203750D03*
X0329342Y0255750D03*
X0307342Y0203750D03*
X0237342Y0255750D03*
X0215342Y0203750D03*
X0145342Y0255750D03*
X0123342Y0203750D03*
X0053342Y0255750D03*
X0123342Y0405750D03*
X0145342Y0457750D03*
X0215342Y0405750D03*
X0237342Y0457750D03*
X0307342Y0405750D03*
X0329342Y0457750D03*
X0399342Y0405750D03*
X0421342Y0457750D03*
X0491342Y0405750D03*
X0491342Y0607750D03*
X0479342Y0641000D03*
X0399342Y0607750D03*
X0307342Y0607750D03*
X0215342Y0607750D03*
X0123342Y0607750D03*
X0075342Y0641000D03*
X0053342Y0457750D03*
D18*
X0071777Y0020500D02*
X0071779Y0020619D01*
X0071785Y0020738D01*
X0071795Y0020857D01*
X0071809Y0020975D01*
X0071827Y0021093D01*
X0071848Y0021210D01*
X0071874Y0021326D01*
X0071904Y0021442D01*
X0071937Y0021556D01*
X0071974Y0021669D01*
X0072015Y0021781D01*
X0072060Y0021892D01*
X0072108Y0022001D01*
X0072160Y0022108D01*
X0072216Y0022213D01*
X0072275Y0022317D01*
X0072337Y0022418D01*
X0072403Y0022518D01*
X0072472Y0022615D01*
X0072544Y0022709D01*
X0072620Y0022802D01*
X0072698Y0022891D01*
X0072779Y0022978D01*
X0072864Y0023063D01*
X0072951Y0023144D01*
X0073040Y0023222D01*
X0073133Y0023298D01*
X0073227Y0023370D01*
X0073324Y0023439D01*
X0073424Y0023505D01*
X0073525Y0023567D01*
X0073629Y0023626D01*
X0073734Y0023682D01*
X0073841Y0023734D01*
X0073950Y0023782D01*
X0074061Y0023827D01*
X0074173Y0023868D01*
X0074286Y0023905D01*
X0074400Y0023938D01*
X0074516Y0023968D01*
X0074632Y0023994D01*
X0074749Y0024015D01*
X0074867Y0024033D01*
X0074985Y0024047D01*
X0075104Y0024057D01*
X0075223Y0024063D01*
X0075342Y0024065D01*
X0075461Y0024063D01*
X0075580Y0024057D01*
X0075699Y0024047D01*
X0075817Y0024033D01*
X0075935Y0024015D01*
X0076052Y0023994D01*
X0076168Y0023968D01*
X0076284Y0023938D01*
X0076398Y0023905D01*
X0076511Y0023868D01*
X0076623Y0023827D01*
X0076734Y0023782D01*
X0076843Y0023734D01*
X0076950Y0023682D01*
X0077055Y0023626D01*
X0077159Y0023567D01*
X0077260Y0023505D01*
X0077360Y0023439D01*
X0077457Y0023370D01*
X0077551Y0023298D01*
X0077644Y0023222D01*
X0077733Y0023144D01*
X0077820Y0023063D01*
X0077905Y0022978D01*
X0077986Y0022891D01*
X0078064Y0022802D01*
X0078140Y0022709D01*
X0078212Y0022615D01*
X0078281Y0022518D01*
X0078347Y0022418D01*
X0078409Y0022317D01*
X0078468Y0022213D01*
X0078524Y0022108D01*
X0078576Y0022001D01*
X0078624Y0021892D01*
X0078669Y0021781D01*
X0078710Y0021669D01*
X0078747Y0021556D01*
X0078780Y0021442D01*
X0078810Y0021326D01*
X0078836Y0021210D01*
X0078857Y0021093D01*
X0078875Y0020975D01*
X0078889Y0020857D01*
X0078899Y0020738D01*
X0078905Y0020619D01*
X0078907Y0020500D01*
X0078905Y0020381D01*
X0078899Y0020262D01*
X0078889Y0020143D01*
X0078875Y0020025D01*
X0078857Y0019907D01*
X0078836Y0019790D01*
X0078810Y0019674D01*
X0078780Y0019558D01*
X0078747Y0019444D01*
X0078710Y0019331D01*
X0078669Y0019219D01*
X0078624Y0019108D01*
X0078576Y0018999D01*
X0078524Y0018892D01*
X0078468Y0018787D01*
X0078409Y0018683D01*
X0078347Y0018582D01*
X0078281Y0018482D01*
X0078212Y0018385D01*
X0078140Y0018291D01*
X0078064Y0018198D01*
X0077986Y0018109D01*
X0077905Y0018022D01*
X0077820Y0017937D01*
X0077733Y0017856D01*
X0077644Y0017778D01*
X0077551Y0017702D01*
X0077457Y0017630D01*
X0077360Y0017561D01*
X0077260Y0017495D01*
X0077159Y0017433D01*
X0077055Y0017374D01*
X0076950Y0017318D01*
X0076843Y0017266D01*
X0076734Y0017218D01*
X0076623Y0017173D01*
X0076511Y0017132D01*
X0076398Y0017095D01*
X0076284Y0017062D01*
X0076168Y0017032D01*
X0076052Y0017006D01*
X0075935Y0016985D01*
X0075817Y0016967D01*
X0075699Y0016953D01*
X0075580Y0016943D01*
X0075461Y0016937D01*
X0075342Y0016935D01*
X0075223Y0016937D01*
X0075104Y0016943D01*
X0074985Y0016953D01*
X0074867Y0016967D01*
X0074749Y0016985D01*
X0074632Y0017006D01*
X0074516Y0017032D01*
X0074400Y0017062D01*
X0074286Y0017095D01*
X0074173Y0017132D01*
X0074061Y0017173D01*
X0073950Y0017218D01*
X0073841Y0017266D01*
X0073734Y0017318D01*
X0073629Y0017374D01*
X0073525Y0017433D01*
X0073424Y0017495D01*
X0073324Y0017561D01*
X0073227Y0017630D01*
X0073133Y0017702D01*
X0073040Y0017778D01*
X0072951Y0017856D01*
X0072864Y0017937D01*
X0072779Y0018022D01*
X0072698Y0018109D01*
X0072620Y0018198D01*
X0072544Y0018291D01*
X0072472Y0018385D01*
X0072403Y0018482D01*
X0072337Y0018582D01*
X0072275Y0018683D01*
X0072216Y0018787D01*
X0072160Y0018892D01*
X0072108Y0018999D01*
X0072060Y0019108D01*
X0072015Y0019219D01*
X0071974Y0019331D01*
X0071937Y0019444D01*
X0071904Y0019558D01*
X0071874Y0019674D01*
X0071848Y0019790D01*
X0071827Y0019907D01*
X0071809Y0020025D01*
X0071795Y0020143D01*
X0071785Y0020262D01*
X0071779Y0020381D01*
X0071777Y0020500D01*
D19*
X0075342Y0020500D03*
M02*
