G75*
%MOIN*%
%OFA0B0*%
%FSLAX25Y25*%
%IPPOS*%
%LPD*%
%AMOC8*
5,1,8,0,0,1.08239X$1,22.5*
%
%ADD10C,0.06800*%
%ADD11C,0.13800*%
%ADD12C,0.04737*%
D10*
X0053342Y0093750D03*
X0053342Y0103750D03*
X0053342Y0113750D03*
X0053342Y0123750D03*
X0053342Y0133750D03*
X0053342Y0143750D03*
X0053342Y0153750D03*
X0053342Y0163750D03*
X0053342Y0173750D03*
X0053342Y0183750D03*
X0053342Y0193750D03*
X0053342Y0203750D03*
X0133342Y0203750D03*
X0133342Y0193750D03*
X0133342Y0183750D03*
X0133342Y0173750D03*
X0133342Y0163750D03*
X0133342Y0153750D03*
X0133342Y0143750D03*
X0133342Y0133750D03*
X0133342Y0123750D03*
X0133342Y0113750D03*
X0133342Y0103750D03*
X0133342Y0093750D03*
X0133342Y0083750D03*
X0133342Y0073750D03*
X0133342Y0063750D03*
X0133342Y0053750D03*
X0145342Y0093750D03*
X0145342Y0103750D03*
X0145342Y0113750D03*
X0145342Y0123750D03*
X0145342Y0133750D03*
X0145342Y0143750D03*
X0145342Y0153750D03*
X0145342Y0163750D03*
X0145342Y0173750D03*
X0145342Y0183750D03*
X0145342Y0193750D03*
X0145342Y0203750D03*
X0133342Y0255750D03*
X0133342Y0265750D03*
X0133342Y0275750D03*
X0133342Y0285750D03*
X0133342Y0295750D03*
X0133342Y0305750D03*
X0133342Y0315750D03*
X0133342Y0325750D03*
X0133342Y0335750D03*
X0133342Y0345750D03*
X0133342Y0355750D03*
X0133342Y0365750D03*
X0133342Y0375750D03*
X0133342Y0385750D03*
X0133342Y0395750D03*
X0133342Y0405750D03*
X0145342Y0405750D03*
X0145342Y0395750D03*
X0145342Y0385750D03*
X0145342Y0375750D03*
X0145342Y0365750D03*
X0145342Y0355750D03*
X0145342Y0345750D03*
X0145342Y0335750D03*
X0145342Y0325750D03*
X0145342Y0315750D03*
X0145342Y0305750D03*
X0145342Y0295750D03*
X0225342Y0295750D03*
X0225342Y0305750D03*
X0225342Y0315750D03*
X0225342Y0325750D03*
X0225342Y0335750D03*
X0225342Y0345750D03*
X0225342Y0355750D03*
X0225342Y0365750D03*
X0225342Y0375750D03*
X0225342Y0385750D03*
X0225342Y0395750D03*
X0225342Y0405750D03*
X0237342Y0405750D03*
X0237342Y0395750D03*
X0237342Y0385750D03*
X0237342Y0375750D03*
X0237342Y0365750D03*
X0237342Y0355750D03*
X0237342Y0345750D03*
X0237342Y0335750D03*
X0237342Y0325750D03*
X0237342Y0315750D03*
X0237342Y0305750D03*
X0237342Y0295750D03*
X0225342Y0285750D03*
X0225342Y0275750D03*
X0225342Y0265750D03*
X0225342Y0255750D03*
X0225342Y0203750D03*
X0225342Y0193750D03*
X0225342Y0183750D03*
X0225342Y0173750D03*
X0225342Y0163750D03*
X0225342Y0153750D03*
X0225342Y0143750D03*
X0225342Y0133750D03*
X0225342Y0123750D03*
X0225342Y0113750D03*
X0225342Y0103750D03*
X0225342Y0093750D03*
X0225342Y0083750D03*
X0225342Y0073750D03*
X0225342Y0063750D03*
X0225342Y0053750D03*
X0237342Y0093750D03*
X0237342Y0103750D03*
X0237342Y0113750D03*
X0237342Y0123750D03*
X0237342Y0133750D03*
X0237342Y0143750D03*
X0237342Y0153750D03*
X0237342Y0163750D03*
X0237342Y0173750D03*
X0237342Y0183750D03*
X0237342Y0193750D03*
X0237342Y0203750D03*
X0317342Y0203750D03*
X0317342Y0193750D03*
X0317342Y0183750D03*
X0317342Y0173750D03*
X0317342Y0163750D03*
X0317342Y0153750D03*
X0317342Y0143750D03*
X0317342Y0133750D03*
X0317342Y0123750D03*
X0317342Y0113750D03*
X0317342Y0103750D03*
X0317342Y0093750D03*
X0317342Y0083750D03*
X0317342Y0073750D03*
X0317342Y0063750D03*
X0317342Y0053750D03*
X0329342Y0093750D03*
X0329342Y0103750D03*
X0329342Y0113750D03*
X0329342Y0123750D03*
X0329342Y0133750D03*
X0329342Y0143750D03*
X0329342Y0153750D03*
X0329342Y0163750D03*
X0329342Y0173750D03*
X0329342Y0183750D03*
X0329342Y0193750D03*
X0329342Y0203750D03*
X0317342Y0255750D03*
X0317342Y0265750D03*
X0317342Y0275750D03*
X0317342Y0285750D03*
X0317342Y0295750D03*
X0317342Y0305750D03*
X0317342Y0315750D03*
X0317342Y0325750D03*
X0317342Y0335750D03*
X0317342Y0345750D03*
X0317342Y0355750D03*
X0317342Y0365750D03*
X0317342Y0375750D03*
X0317342Y0385750D03*
X0317342Y0395750D03*
X0317342Y0405750D03*
X0329342Y0405750D03*
X0329342Y0395750D03*
X0329342Y0385750D03*
X0329342Y0375750D03*
X0329342Y0365750D03*
X0329342Y0355750D03*
X0329342Y0345750D03*
X0329342Y0335750D03*
X0329342Y0325750D03*
X0329342Y0315750D03*
X0329342Y0305750D03*
X0329342Y0295750D03*
X0409342Y0295750D03*
X0409342Y0305750D03*
X0409342Y0315750D03*
X0409342Y0325750D03*
X0409342Y0335750D03*
X0409342Y0345750D03*
X0409342Y0355750D03*
X0409342Y0365750D03*
X0409342Y0375750D03*
X0409342Y0385750D03*
X0409342Y0395750D03*
X0409342Y0405750D03*
X0421342Y0405750D03*
X0421342Y0395750D03*
X0421342Y0385750D03*
X0421342Y0375750D03*
X0421342Y0365750D03*
X0421342Y0355750D03*
X0421342Y0345750D03*
X0421342Y0335750D03*
X0421342Y0325750D03*
X0421342Y0315750D03*
X0421342Y0305750D03*
X0421342Y0295750D03*
X0409342Y0285750D03*
X0409342Y0275750D03*
X0409342Y0265750D03*
X0409342Y0255750D03*
X0409342Y0203750D03*
X0409342Y0193750D03*
X0409342Y0183750D03*
X0409342Y0173750D03*
X0409342Y0163750D03*
X0409342Y0153750D03*
X0409342Y0143750D03*
X0409342Y0133750D03*
X0409342Y0123750D03*
X0409342Y0113750D03*
X0409342Y0103750D03*
X0409342Y0093750D03*
X0409342Y0083750D03*
X0409342Y0073750D03*
X0409342Y0063750D03*
X0409342Y0053750D03*
X0421342Y0093750D03*
X0421342Y0103750D03*
X0421342Y0113750D03*
X0421342Y0123750D03*
X0421342Y0133750D03*
X0421342Y0143750D03*
X0421342Y0153750D03*
X0421342Y0163750D03*
X0421342Y0173750D03*
X0421342Y0183750D03*
X0421342Y0193750D03*
X0421342Y0203750D03*
X0501342Y0203750D03*
X0501342Y0193750D03*
X0501342Y0183750D03*
X0501342Y0173750D03*
X0501342Y0163750D03*
X0501342Y0153750D03*
X0501342Y0143750D03*
X0501342Y0133750D03*
X0501342Y0123750D03*
X0501342Y0113750D03*
X0501342Y0103750D03*
X0501342Y0093750D03*
X0501342Y0083750D03*
X0501342Y0073750D03*
X0501342Y0063750D03*
X0501342Y0053750D03*
X0501342Y0255750D03*
X0501342Y0265750D03*
X0501342Y0275750D03*
X0501342Y0285750D03*
X0501342Y0295750D03*
X0501342Y0305750D03*
X0501342Y0315750D03*
X0501342Y0325750D03*
X0501342Y0335750D03*
X0501342Y0345750D03*
X0501342Y0355750D03*
X0501342Y0365750D03*
X0501342Y0375750D03*
X0501342Y0385750D03*
X0501342Y0395750D03*
X0501342Y0405750D03*
X0501342Y0457750D03*
X0501342Y0467750D03*
X0501342Y0477750D03*
X0501342Y0487750D03*
X0501342Y0497750D03*
X0501342Y0507750D03*
X0501342Y0517750D03*
X0501342Y0527750D03*
X0501342Y0537750D03*
X0501342Y0547750D03*
X0501342Y0557750D03*
X0501342Y0567750D03*
X0501342Y0577750D03*
X0501342Y0587750D03*
X0501342Y0597750D03*
X0501342Y0607750D03*
X0421342Y0607750D03*
X0421342Y0597750D03*
X0421342Y0587750D03*
X0421342Y0577750D03*
X0421342Y0567750D03*
X0421342Y0557750D03*
X0421342Y0547750D03*
X0421342Y0537750D03*
X0421342Y0527750D03*
X0421342Y0517750D03*
X0421342Y0507750D03*
X0421342Y0497750D03*
X0409342Y0497750D03*
X0409342Y0487750D03*
X0409342Y0477750D03*
X0409342Y0467750D03*
X0409342Y0457750D03*
X0409342Y0507750D03*
X0409342Y0517750D03*
X0409342Y0527750D03*
X0409342Y0537750D03*
X0409342Y0547750D03*
X0409342Y0557750D03*
X0409342Y0567750D03*
X0409342Y0577750D03*
X0409342Y0587750D03*
X0409342Y0597750D03*
X0409342Y0607750D03*
X0329342Y0607750D03*
X0329342Y0597750D03*
X0329342Y0587750D03*
X0329342Y0577750D03*
X0329342Y0567750D03*
X0329342Y0557750D03*
X0329342Y0547750D03*
X0329342Y0537750D03*
X0329342Y0527750D03*
X0329342Y0517750D03*
X0329342Y0507750D03*
X0329342Y0497750D03*
X0317342Y0497750D03*
X0317342Y0487750D03*
X0317342Y0477750D03*
X0317342Y0467750D03*
X0317342Y0457750D03*
X0317342Y0507750D03*
X0317342Y0517750D03*
X0317342Y0527750D03*
X0317342Y0537750D03*
X0317342Y0547750D03*
X0317342Y0557750D03*
X0317342Y0567750D03*
X0317342Y0577750D03*
X0317342Y0587750D03*
X0317342Y0597750D03*
X0317342Y0607750D03*
X0237342Y0607750D03*
X0237342Y0597750D03*
X0237342Y0587750D03*
X0237342Y0577750D03*
X0237342Y0567750D03*
X0237342Y0557750D03*
X0237342Y0547750D03*
X0237342Y0537750D03*
X0237342Y0527750D03*
X0237342Y0517750D03*
X0237342Y0507750D03*
X0237342Y0497750D03*
X0225342Y0497750D03*
X0225342Y0487750D03*
X0225342Y0477750D03*
X0225342Y0467750D03*
X0225342Y0457750D03*
X0225342Y0507750D03*
X0225342Y0517750D03*
X0225342Y0527750D03*
X0225342Y0537750D03*
X0225342Y0547750D03*
X0225342Y0557750D03*
X0225342Y0567750D03*
X0225342Y0577750D03*
X0225342Y0587750D03*
X0225342Y0597750D03*
X0225342Y0607750D03*
X0145342Y0607750D03*
X0145342Y0597750D03*
X0145342Y0587750D03*
X0145342Y0577750D03*
X0145342Y0567750D03*
X0145342Y0557750D03*
X0145342Y0547750D03*
X0145342Y0537750D03*
X0145342Y0527750D03*
X0145342Y0517750D03*
X0145342Y0507750D03*
X0145342Y0497750D03*
X0133342Y0497750D03*
X0133342Y0487750D03*
X0133342Y0477750D03*
X0133342Y0467750D03*
X0133342Y0457750D03*
X0133342Y0507750D03*
X0133342Y0517750D03*
X0133342Y0527750D03*
X0133342Y0537750D03*
X0133342Y0547750D03*
X0133342Y0557750D03*
X0133342Y0567750D03*
X0133342Y0577750D03*
X0133342Y0587750D03*
X0133342Y0597750D03*
X0133342Y0607750D03*
X0053342Y0607750D03*
X0053342Y0597750D03*
X0053342Y0587750D03*
X0053342Y0577750D03*
X0053342Y0567750D03*
X0053342Y0557750D03*
X0053342Y0547750D03*
X0053342Y0537750D03*
X0053342Y0527750D03*
X0053342Y0517750D03*
X0053342Y0507750D03*
X0053342Y0497750D03*
X0053342Y0405750D03*
X0053342Y0395750D03*
X0053342Y0385750D03*
X0053342Y0375750D03*
X0053342Y0365750D03*
X0053342Y0355750D03*
X0053342Y0345750D03*
X0053342Y0335750D03*
X0053342Y0325750D03*
X0053342Y0315750D03*
X0053342Y0305750D03*
X0053342Y0295750D03*
D11*
X0058342Y0240750D03*
X0058342Y0218750D03*
X0128342Y0218750D03*
X0150342Y0218750D03*
X0150342Y0240750D03*
X0128342Y0240750D03*
X0220342Y0240750D03*
X0242342Y0240750D03*
X0242342Y0218750D03*
X0220342Y0218750D03*
X0312342Y0218750D03*
X0334342Y0218750D03*
X0334342Y0240750D03*
X0312342Y0240750D03*
X0404342Y0240750D03*
X0426342Y0240750D03*
X0426342Y0218750D03*
X0404342Y0218750D03*
X0496342Y0218750D03*
X0496342Y0240750D03*
X0496342Y0420750D03*
X0496342Y0442750D03*
X0426342Y0442750D03*
X0404342Y0442750D03*
X0404342Y0420750D03*
X0426342Y0420750D03*
X0334342Y0420750D03*
X0312342Y0420750D03*
X0312342Y0442750D03*
X0334342Y0442750D03*
X0242342Y0442750D03*
X0220342Y0442750D03*
X0220342Y0420750D03*
X0242342Y0420750D03*
X0150342Y0420750D03*
X0128342Y0420750D03*
X0128342Y0442750D03*
X0150342Y0442750D03*
X0058342Y0442750D03*
X0058342Y0420750D03*
X0058342Y0622750D03*
X0128342Y0622750D03*
X0150342Y0622750D03*
X0220342Y0622750D03*
X0242342Y0622750D03*
X0312342Y0622750D03*
X0334342Y0622750D03*
X0404342Y0622750D03*
X0426342Y0622750D03*
X0496342Y0622750D03*
X0496342Y0038750D03*
X0426342Y0038750D03*
X0404342Y0038750D03*
X0334342Y0038750D03*
X0312342Y0038750D03*
X0242342Y0038750D03*
X0220342Y0038750D03*
X0150342Y0038750D03*
X0128342Y0038750D03*
X0058342Y0038750D03*
D12*
X0053342Y0053750D03*
X0145342Y0053750D03*
X0237342Y0053750D03*
X0329342Y0053750D03*
X0421342Y0053750D03*
X0399342Y0203750D03*
X0421342Y0255750D03*
X0491342Y0203750D03*
X0329342Y0255750D03*
X0307342Y0203750D03*
X0237342Y0255750D03*
X0215342Y0203750D03*
X0145342Y0255750D03*
X0123342Y0203750D03*
X0053342Y0255750D03*
X0123342Y0405750D03*
X0145342Y0457750D03*
X0215342Y0405750D03*
X0237342Y0457750D03*
X0307342Y0405750D03*
X0329342Y0457750D03*
X0399342Y0405750D03*
X0421342Y0457750D03*
X0491342Y0405750D03*
X0491342Y0607750D03*
X0399342Y0607750D03*
X0307342Y0607750D03*
X0215342Y0607750D03*
X0123342Y0607750D03*
X0053342Y0457750D03*
M02*
