G75*
%MOIN*%
%OFA0B0*%
%FSLAX25Y25*%
%IPPOS*%
%LPD*%
%AMOC8*
5,1,8,0,0,1.08239X$1,22.5*
%
%ADD10C,0.01500*%
%ADD11C,0.01100*%
D10*
X0021342Y0027750D02*
X0558342Y0027750D01*
X0507342Y0001750D02*
X0507342Y0684750D01*
X0558342Y0633750D02*
X0021342Y0633750D01*
X0047342Y0684750D02*
X0047342Y0001750D01*
X0139342Y0001750D02*
X0139342Y0684750D01*
X0231342Y0684750D02*
X0231342Y0001750D01*
X0323342Y0001750D02*
X0323342Y0684750D01*
X0415342Y0684750D02*
X0415342Y0001750D01*
X0558342Y0229750D02*
X0021342Y0229750D01*
X0021342Y0431750D02*
X0558342Y0431750D01*
D11*
X0571133Y0432733D02*
X0572444Y0428800D01*
X0573755Y0432733D01*
X0576426Y0431094D02*
X0580359Y0431094D01*
X0583727Y0431094D02*
X0585366Y0430439D01*
X0585367Y0430439D02*
X0585419Y0430416D01*
X0585470Y0430389D01*
X0585519Y0430359D01*
X0585566Y0430326D01*
X0585611Y0430290D01*
X0585653Y0430250D01*
X0585692Y0430208D01*
X0585728Y0430164D01*
X0585761Y0430117D01*
X0585791Y0430067D01*
X0585818Y0430016D01*
X0585841Y0429964D01*
X0585860Y0429910D01*
X0585876Y0429854D01*
X0585888Y0429798D01*
X0585896Y0429741D01*
X0585900Y0429684D01*
X0585901Y0429626D01*
X0585897Y0429569D01*
X0585890Y0429512D01*
X0585878Y0429455D01*
X0585863Y0429400D01*
X0585845Y0429345D01*
X0585822Y0429292D01*
X0585796Y0429241D01*
X0585767Y0429192D01*
X0585734Y0429144D01*
X0585698Y0429099D01*
X0585660Y0429057D01*
X0585618Y0429017D01*
X0585574Y0428980D01*
X0585527Y0428946D01*
X0585479Y0428915D01*
X0585428Y0428888D01*
X0585376Y0428864D01*
X0585322Y0428844D01*
X0585267Y0428828D01*
X0585211Y0428815D01*
X0585154Y0428806D01*
X0585096Y0428801D01*
X0585039Y0428800D01*
X0585530Y0432405D02*
X0585423Y0432451D01*
X0585314Y0432494D01*
X0585204Y0432534D01*
X0585092Y0432570D01*
X0584980Y0432602D01*
X0584866Y0432631D01*
X0584752Y0432657D01*
X0584637Y0432678D01*
X0584522Y0432697D01*
X0584405Y0432711D01*
X0584289Y0432722D01*
X0584172Y0432729D01*
X0584055Y0432733D01*
X0584055Y0432734D02*
X0583998Y0432733D01*
X0583940Y0432728D01*
X0583883Y0432719D01*
X0583827Y0432706D01*
X0583772Y0432690D01*
X0583718Y0432670D01*
X0583666Y0432646D01*
X0583615Y0432619D01*
X0583567Y0432588D01*
X0583520Y0432554D01*
X0583476Y0432517D01*
X0583434Y0432477D01*
X0583396Y0432435D01*
X0583360Y0432390D01*
X0583327Y0432342D01*
X0583298Y0432293D01*
X0583272Y0432242D01*
X0583249Y0432189D01*
X0583231Y0432134D01*
X0583216Y0432079D01*
X0583204Y0432022D01*
X0583197Y0431965D01*
X0583193Y0431908D01*
X0583194Y0431850D01*
X0583198Y0431793D01*
X0583206Y0431736D01*
X0583218Y0431680D01*
X0583234Y0431624D01*
X0583253Y0431570D01*
X0583276Y0431518D01*
X0583303Y0431467D01*
X0583333Y0431417D01*
X0583366Y0431370D01*
X0583402Y0431326D01*
X0583441Y0431284D01*
X0583483Y0431244D01*
X0583528Y0431208D01*
X0583575Y0431175D01*
X0583624Y0431145D01*
X0583675Y0431118D01*
X0583727Y0431095D01*
X0583236Y0429128D02*
X0583370Y0429082D01*
X0583505Y0429039D01*
X0583641Y0429000D01*
X0583778Y0428964D01*
X0583915Y0428932D01*
X0584054Y0428903D01*
X0584193Y0428877D01*
X0584333Y0428856D01*
X0584474Y0428837D01*
X0584614Y0428823D01*
X0584756Y0428812D01*
X0584897Y0428804D01*
X0585039Y0428801D01*
X0588580Y0429783D02*
X0588580Y0431750D01*
X0588582Y0431812D01*
X0588588Y0431873D01*
X0588597Y0431934D01*
X0588611Y0431994D01*
X0588628Y0432054D01*
X0588649Y0432112D01*
X0588674Y0432169D01*
X0588702Y0432224D01*
X0588733Y0432277D01*
X0588768Y0432328D01*
X0588806Y0432377D01*
X0588846Y0432423D01*
X0588890Y0432467D01*
X0588936Y0432507D01*
X0588985Y0432545D01*
X0589036Y0432580D01*
X0589089Y0432611D01*
X0589144Y0432639D01*
X0589201Y0432664D01*
X0589259Y0432685D01*
X0589319Y0432702D01*
X0589379Y0432716D01*
X0589440Y0432725D01*
X0589501Y0432731D01*
X0589563Y0432733D01*
X0590874Y0432733D01*
X0593287Y0431422D02*
X0593287Y0430111D01*
X0593289Y0430040D01*
X0593295Y0429969D01*
X0593304Y0429899D01*
X0593318Y0429829D01*
X0593335Y0429760D01*
X0593356Y0429692D01*
X0593380Y0429626D01*
X0593408Y0429561D01*
X0593440Y0429497D01*
X0593475Y0429435D01*
X0593513Y0429375D01*
X0593554Y0429318D01*
X0593599Y0429262D01*
X0593646Y0429209D01*
X0593696Y0429159D01*
X0593749Y0429112D01*
X0593805Y0429067D01*
X0593862Y0429026D01*
X0593922Y0428988D01*
X0593984Y0428953D01*
X0594048Y0428921D01*
X0594113Y0428893D01*
X0594179Y0428869D01*
X0594247Y0428848D01*
X0594316Y0428831D01*
X0594386Y0428817D01*
X0594456Y0428808D01*
X0594527Y0428802D01*
X0594598Y0428800D01*
X0594669Y0428802D01*
X0594740Y0428808D01*
X0594810Y0428817D01*
X0594880Y0428831D01*
X0594949Y0428848D01*
X0595017Y0428869D01*
X0595083Y0428893D01*
X0595148Y0428921D01*
X0595212Y0428953D01*
X0595274Y0428988D01*
X0595334Y0429026D01*
X0595391Y0429067D01*
X0595447Y0429112D01*
X0595500Y0429159D01*
X0595550Y0429209D01*
X0595597Y0429262D01*
X0595642Y0429318D01*
X0595683Y0429375D01*
X0595721Y0429435D01*
X0595756Y0429497D01*
X0595788Y0429561D01*
X0595816Y0429626D01*
X0595840Y0429692D01*
X0595861Y0429760D01*
X0595878Y0429829D01*
X0595892Y0429899D01*
X0595901Y0429969D01*
X0595907Y0430040D01*
X0595909Y0430111D01*
X0595910Y0430111D02*
X0595910Y0431422D01*
X0595909Y0431422D02*
X0595907Y0431493D01*
X0595901Y0431564D01*
X0595892Y0431634D01*
X0595878Y0431704D01*
X0595861Y0431773D01*
X0595840Y0431841D01*
X0595816Y0431907D01*
X0595788Y0431972D01*
X0595756Y0432036D01*
X0595721Y0432098D01*
X0595683Y0432158D01*
X0595642Y0432215D01*
X0595597Y0432271D01*
X0595550Y0432324D01*
X0595500Y0432374D01*
X0595447Y0432421D01*
X0595391Y0432466D01*
X0595334Y0432507D01*
X0595274Y0432545D01*
X0595212Y0432580D01*
X0595148Y0432612D01*
X0595083Y0432640D01*
X0595017Y0432664D01*
X0594949Y0432685D01*
X0594880Y0432702D01*
X0594810Y0432716D01*
X0594740Y0432725D01*
X0594669Y0432731D01*
X0594598Y0432733D01*
X0594527Y0432731D01*
X0594456Y0432725D01*
X0594386Y0432716D01*
X0594316Y0432702D01*
X0594247Y0432685D01*
X0594179Y0432664D01*
X0594113Y0432640D01*
X0594048Y0432612D01*
X0593984Y0432580D01*
X0593922Y0432545D01*
X0593862Y0432507D01*
X0593805Y0432466D01*
X0593749Y0432421D01*
X0593696Y0432374D01*
X0593646Y0432324D01*
X0593599Y0432271D01*
X0593554Y0432215D01*
X0593513Y0432158D01*
X0593475Y0432098D01*
X0593440Y0432036D01*
X0593408Y0431972D01*
X0593380Y0431907D01*
X0593356Y0431841D01*
X0593335Y0431773D01*
X0593318Y0431704D01*
X0593304Y0431634D01*
X0593295Y0431564D01*
X0593289Y0431493D01*
X0593287Y0431422D01*
X0590874Y0428800D02*
X0589563Y0428800D01*
X0589501Y0428802D01*
X0589440Y0428808D01*
X0589379Y0428817D01*
X0589319Y0428831D01*
X0589259Y0428848D01*
X0589201Y0428869D01*
X0589144Y0428894D01*
X0589089Y0428922D01*
X0589036Y0428953D01*
X0588985Y0428988D01*
X0588936Y0429026D01*
X0588890Y0429066D01*
X0588846Y0429110D01*
X0588806Y0429156D01*
X0588768Y0429205D01*
X0588733Y0429256D01*
X0588702Y0429309D01*
X0588674Y0429364D01*
X0588649Y0429421D01*
X0588628Y0429479D01*
X0588611Y0429539D01*
X0588597Y0429599D01*
X0588588Y0429660D01*
X0588582Y0429721D01*
X0588580Y0429783D01*
X0598876Y0428800D02*
X0598876Y0432733D01*
X0600843Y0432733D01*
X0600843Y0432078D01*
X0602929Y0431422D02*
X0602929Y0429783D01*
X0602931Y0429721D01*
X0602937Y0429660D01*
X0602946Y0429599D01*
X0602960Y0429539D01*
X0602977Y0429479D01*
X0602998Y0429421D01*
X0603023Y0429364D01*
X0603051Y0429309D01*
X0603082Y0429256D01*
X0603117Y0429205D01*
X0603155Y0429156D01*
X0603195Y0429110D01*
X0603239Y0429066D01*
X0603285Y0429026D01*
X0603334Y0428988D01*
X0603385Y0428953D01*
X0603438Y0428922D01*
X0603493Y0428894D01*
X0603550Y0428869D01*
X0603608Y0428848D01*
X0603668Y0428831D01*
X0603728Y0428817D01*
X0603789Y0428808D01*
X0603850Y0428802D01*
X0603912Y0428800D01*
X0605551Y0428800D01*
X0605551Y0430767D02*
X0602929Y0430767D01*
X0602929Y0431422D02*
X0602931Y0431493D01*
X0602937Y0431564D01*
X0602946Y0431634D01*
X0602960Y0431704D01*
X0602977Y0431773D01*
X0602998Y0431841D01*
X0603022Y0431907D01*
X0603050Y0431972D01*
X0603082Y0432036D01*
X0603117Y0432098D01*
X0603155Y0432158D01*
X0603196Y0432215D01*
X0603241Y0432271D01*
X0603288Y0432324D01*
X0603338Y0432374D01*
X0603391Y0432421D01*
X0603447Y0432466D01*
X0603504Y0432507D01*
X0603564Y0432545D01*
X0603626Y0432580D01*
X0603690Y0432612D01*
X0603755Y0432640D01*
X0603821Y0432664D01*
X0603889Y0432685D01*
X0603958Y0432702D01*
X0604028Y0432716D01*
X0604098Y0432725D01*
X0604169Y0432731D01*
X0604240Y0432733D01*
X0604311Y0432731D01*
X0604382Y0432725D01*
X0604452Y0432716D01*
X0604522Y0432702D01*
X0604591Y0432685D01*
X0604659Y0432664D01*
X0604725Y0432640D01*
X0604790Y0432612D01*
X0604854Y0432580D01*
X0604916Y0432545D01*
X0604976Y0432507D01*
X0605033Y0432466D01*
X0605089Y0432421D01*
X0605142Y0432374D01*
X0605192Y0432324D01*
X0605239Y0432271D01*
X0605284Y0432215D01*
X0605325Y0432158D01*
X0605363Y0432098D01*
X0605398Y0432036D01*
X0605430Y0431972D01*
X0605458Y0431907D01*
X0605482Y0431841D01*
X0605503Y0431773D01*
X0605520Y0431704D01*
X0605534Y0431634D01*
X0605543Y0431564D01*
X0605549Y0431493D01*
X0605551Y0431422D01*
X0605551Y0430767D01*
X0583236Y0227128D02*
X0583370Y0227082D01*
X0583505Y0227039D01*
X0583641Y0227000D01*
X0583778Y0226964D01*
X0583915Y0226932D01*
X0584054Y0226903D01*
X0584193Y0226877D01*
X0584333Y0226856D01*
X0584474Y0226837D01*
X0584614Y0226823D01*
X0584756Y0226812D01*
X0584897Y0226804D01*
X0585039Y0226801D01*
X0585039Y0226800D02*
X0585096Y0226801D01*
X0585154Y0226806D01*
X0585211Y0226815D01*
X0585267Y0226828D01*
X0585322Y0226844D01*
X0585376Y0226864D01*
X0585428Y0226888D01*
X0585479Y0226915D01*
X0585527Y0226946D01*
X0585574Y0226980D01*
X0585618Y0227017D01*
X0585660Y0227057D01*
X0585698Y0227099D01*
X0585734Y0227144D01*
X0585767Y0227192D01*
X0585796Y0227241D01*
X0585822Y0227292D01*
X0585845Y0227345D01*
X0585863Y0227400D01*
X0585878Y0227455D01*
X0585890Y0227512D01*
X0585897Y0227569D01*
X0585901Y0227626D01*
X0585900Y0227684D01*
X0585896Y0227741D01*
X0585888Y0227798D01*
X0585876Y0227854D01*
X0585860Y0227910D01*
X0585841Y0227964D01*
X0585818Y0228016D01*
X0585791Y0228067D01*
X0585761Y0228117D01*
X0585728Y0228164D01*
X0585692Y0228208D01*
X0585653Y0228250D01*
X0585611Y0228290D01*
X0585566Y0228326D01*
X0585519Y0228359D01*
X0585470Y0228389D01*
X0585419Y0228416D01*
X0585367Y0228439D01*
X0585366Y0228439D02*
X0583727Y0229094D01*
X0583727Y0229095D02*
X0583675Y0229118D01*
X0583624Y0229145D01*
X0583575Y0229175D01*
X0583528Y0229208D01*
X0583483Y0229244D01*
X0583441Y0229284D01*
X0583402Y0229326D01*
X0583366Y0229370D01*
X0583333Y0229417D01*
X0583303Y0229467D01*
X0583276Y0229518D01*
X0583253Y0229570D01*
X0583234Y0229624D01*
X0583218Y0229680D01*
X0583206Y0229736D01*
X0583198Y0229793D01*
X0583194Y0229850D01*
X0583193Y0229908D01*
X0583197Y0229965D01*
X0583204Y0230022D01*
X0583216Y0230079D01*
X0583231Y0230134D01*
X0583249Y0230189D01*
X0583272Y0230242D01*
X0583298Y0230293D01*
X0583327Y0230342D01*
X0583360Y0230390D01*
X0583396Y0230435D01*
X0583434Y0230477D01*
X0583476Y0230517D01*
X0583520Y0230554D01*
X0583567Y0230588D01*
X0583615Y0230619D01*
X0583666Y0230646D01*
X0583718Y0230670D01*
X0583772Y0230690D01*
X0583827Y0230706D01*
X0583883Y0230719D01*
X0583940Y0230728D01*
X0583998Y0230733D01*
X0584055Y0230734D01*
X0584055Y0230733D02*
X0584172Y0230729D01*
X0584289Y0230722D01*
X0584405Y0230711D01*
X0584522Y0230697D01*
X0584637Y0230678D01*
X0584752Y0230657D01*
X0584866Y0230631D01*
X0584980Y0230602D01*
X0585092Y0230570D01*
X0585204Y0230534D01*
X0585314Y0230494D01*
X0585423Y0230451D01*
X0585530Y0230405D01*
X0588580Y0229750D02*
X0588580Y0227783D01*
X0588582Y0227721D01*
X0588588Y0227660D01*
X0588597Y0227599D01*
X0588611Y0227539D01*
X0588628Y0227479D01*
X0588649Y0227421D01*
X0588674Y0227364D01*
X0588702Y0227309D01*
X0588733Y0227256D01*
X0588768Y0227205D01*
X0588806Y0227156D01*
X0588846Y0227110D01*
X0588890Y0227066D01*
X0588936Y0227026D01*
X0588985Y0226988D01*
X0589036Y0226953D01*
X0589089Y0226922D01*
X0589144Y0226894D01*
X0589201Y0226869D01*
X0589259Y0226848D01*
X0589319Y0226831D01*
X0589379Y0226817D01*
X0589440Y0226808D01*
X0589501Y0226802D01*
X0589563Y0226800D01*
X0590874Y0226800D01*
X0593287Y0228111D02*
X0593287Y0229422D01*
X0593289Y0229493D01*
X0593295Y0229564D01*
X0593304Y0229634D01*
X0593318Y0229704D01*
X0593335Y0229773D01*
X0593356Y0229841D01*
X0593380Y0229907D01*
X0593408Y0229972D01*
X0593440Y0230036D01*
X0593475Y0230098D01*
X0593513Y0230158D01*
X0593554Y0230215D01*
X0593599Y0230271D01*
X0593646Y0230324D01*
X0593696Y0230374D01*
X0593749Y0230421D01*
X0593805Y0230466D01*
X0593862Y0230507D01*
X0593922Y0230545D01*
X0593984Y0230580D01*
X0594048Y0230612D01*
X0594113Y0230640D01*
X0594179Y0230664D01*
X0594247Y0230685D01*
X0594316Y0230702D01*
X0594386Y0230716D01*
X0594456Y0230725D01*
X0594527Y0230731D01*
X0594598Y0230733D01*
X0594669Y0230731D01*
X0594740Y0230725D01*
X0594810Y0230716D01*
X0594880Y0230702D01*
X0594949Y0230685D01*
X0595017Y0230664D01*
X0595083Y0230640D01*
X0595148Y0230612D01*
X0595212Y0230580D01*
X0595274Y0230545D01*
X0595334Y0230507D01*
X0595391Y0230466D01*
X0595447Y0230421D01*
X0595500Y0230374D01*
X0595550Y0230324D01*
X0595597Y0230271D01*
X0595642Y0230215D01*
X0595683Y0230158D01*
X0595721Y0230098D01*
X0595756Y0230036D01*
X0595788Y0229972D01*
X0595816Y0229907D01*
X0595840Y0229841D01*
X0595861Y0229773D01*
X0595878Y0229704D01*
X0595892Y0229634D01*
X0595901Y0229564D01*
X0595907Y0229493D01*
X0595909Y0229422D01*
X0595910Y0229422D02*
X0595910Y0228111D01*
X0595909Y0228111D02*
X0595907Y0228040D01*
X0595901Y0227969D01*
X0595892Y0227899D01*
X0595878Y0227829D01*
X0595861Y0227760D01*
X0595840Y0227692D01*
X0595816Y0227626D01*
X0595788Y0227561D01*
X0595756Y0227497D01*
X0595721Y0227435D01*
X0595683Y0227375D01*
X0595642Y0227318D01*
X0595597Y0227262D01*
X0595550Y0227209D01*
X0595500Y0227159D01*
X0595447Y0227112D01*
X0595391Y0227067D01*
X0595334Y0227026D01*
X0595274Y0226988D01*
X0595212Y0226953D01*
X0595148Y0226921D01*
X0595083Y0226893D01*
X0595017Y0226869D01*
X0594949Y0226848D01*
X0594880Y0226831D01*
X0594810Y0226817D01*
X0594740Y0226808D01*
X0594669Y0226802D01*
X0594598Y0226800D01*
X0594527Y0226802D01*
X0594456Y0226808D01*
X0594386Y0226817D01*
X0594316Y0226831D01*
X0594247Y0226848D01*
X0594179Y0226869D01*
X0594113Y0226893D01*
X0594048Y0226921D01*
X0593984Y0226953D01*
X0593922Y0226988D01*
X0593862Y0227026D01*
X0593805Y0227067D01*
X0593749Y0227112D01*
X0593696Y0227159D01*
X0593646Y0227209D01*
X0593599Y0227262D01*
X0593554Y0227318D01*
X0593513Y0227375D01*
X0593475Y0227435D01*
X0593440Y0227497D01*
X0593408Y0227561D01*
X0593380Y0227626D01*
X0593356Y0227692D01*
X0593335Y0227760D01*
X0593318Y0227829D01*
X0593304Y0227899D01*
X0593295Y0227969D01*
X0593289Y0228040D01*
X0593287Y0228111D01*
X0590874Y0230733D02*
X0589563Y0230733D01*
X0589501Y0230731D01*
X0589440Y0230725D01*
X0589379Y0230716D01*
X0589319Y0230702D01*
X0589259Y0230685D01*
X0589201Y0230664D01*
X0589144Y0230639D01*
X0589089Y0230611D01*
X0589036Y0230580D01*
X0588985Y0230545D01*
X0588936Y0230507D01*
X0588890Y0230467D01*
X0588846Y0230423D01*
X0588806Y0230377D01*
X0588768Y0230328D01*
X0588733Y0230277D01*
X0588702Y0230224D01*
X0588674Y0230169D01*
X0588649Y0230112D01*
X0588628Y0230054D01*
X0588611Y0229994D01*
X0588597Y0229934D01*
X0588588Y0229873D01*
X0588582Y0229812D01*
X0588580Y0229750D01*
X0580359Y0229094D02*
X0576426Y0229094D01*
X0573755Y0230733D02*
X0572444Y0226800D01*
X0571133Y0230733D01*
X0598876Y0230733D02*
X0600843Y0230733D01*
X0600843Y0230078D01*
X0598876Y0230733D02*
X0598876Y0226800D01*
X0602929Y0227783D02*
X0602929Y0229422D01*
X0602929Y0228767D02*
X0605551Y0228767D01*
X0605551Y0229422D01*
X0605549Y0229493D01*
X0605543Y0229564D01*
X0605534Y0229634D01*
X0605520Y0229704D01*
X0605503Y0229773D01*
X0605482Y0229841D01*
X0605458Y0229907D01*
X0605430Y0229972D01*
X0605398Y0230036D01*
X0605363Y0230098D01*
X0605325Y0230158D01*
X0605284Y0230215D01*
X0605239Y0230271D01*
X0605192Y0230324D01*
X0605142Y0230374D01*
X0605089Y0230421D01*
X0605033Y0230466D01*
X0604976Y0230507D01*
X0604916Y0230545D01*
X0604854Y0230580D01*
X0604790Y0230612D01*
X0604725Y0230640D01*
X0604659Y0230664D01*
X0604591Y0230685D01*
X0604522Y0230702D01*
X0604452Y0230716D01*
X0604382Y0230725D01*
X0604311Y0230731D01*
X0604240Y0230733D01*
X0604169Y0230731D01*
X0604098Y0230725D01*
X0604028Y0230716D01*
X0603958Y0230702D01*
X0603889Y0230685D01*
X0603821Y0230664D01*
X0603755Y0230640D01*
X0603690Y0230612D01*
X0603626Y0230580D01*
X0603564Y0230545D01*
X0603504Y0230507D01*
X0603447Y0230466D01*
X0603391Y0230421D01*
X0603338Y0230374D01*
X0603288Y0230324D01*
X0603241Y0230271D01*
X0603196Y0230215D01*
X0603155Y0230158D01*
X0603117Y0230098D01*
X0603082Y0230036D01*
X0603050Y0229972D01*
X0603022Y0229907D01*
X0602998Y0229841D01*
X0602977Y0229773D01*
X0602960Y0229704D01*
X0602946Y0229634D01*
X0602937Y0229564D01*
X0602931Y0229493D01*
X0602929Y0229422D01*
X0602929Y0227783D02*
X0602931Y0227721D01*
X0602937Y0227660D01*
X0602946Y0227599D01*
X0602960Y0227539D01*
X0602977Y0227479D01*
X0602998Y0227421D01*
X0603023Y0227364D01*
X0603051Y0227309D01*
X0603082Y0227256D01*
X0603117Y0227205D01*
X0603155Y0227156D01*
X0603195Y0227110D01*
X0603239Y0227066D01*
X0603285Y0227026D01*
X0603334Y0226988D01*
X0603385Y0226953D01*
X0603438Y0226922D01*
X0603493Y0226894D01*
X0603550Y0226869D01*
X0603608Y0226848D01*
X0603668Y0226831D01*
X0603728Y0226817D01*
X0603789Y0226808D01*
X0603850Y0226802D01*
X0603912Y0226800D01*
X0605551Y0226800D01*
X0583236Y0025128D02*
X0583370Y0025082D01*
X0583505Y0025039D01*
X0583641Y0025000D01*
X0583778Y0024964D01*
X0583915Y0024932D01*
X0584054Y0024903D01*
X0584193Y0024877D01*
X0584333Y0024856D01*
X0584474Y0024837D01*
X0584614Y0024823D01*
X0584756Y0024812D01*
X0584897Y0024804D01*
X0585039Y0024801D01*
X0585039Y0024800D02*
X0585096Y0024801D01*
X0585154Y0024806D01*
X0585211Y0024815D01*
X0585267Y0024828D01*
X0585322Y0024844D01*
X0585376Y0024864D01*
X0585428Y0024888D01*
X0585479Y0024915D01*
X0585527Y0024946D01*
X0585574Y0024980D01*
X0585618Y0025017D01*
X0585660Y0025057D01*
X0585698Y0025099D01*
X0585734Y0025144D01*
X0585767Y0025192D01*
X0585796Y0025241D01*
X0585822Y0025292D01*
X0585845Y0025345D01*
X0585863Y0025400D01*
X0585878Y0025455D01*
X0585890Y0025512D01*
X0585897Y0025569D01*
X0585901Y0025626D01*
X0585900Y0025684D01*
X0585896Y0025741D01*
X0585888Y0025798D01*
X0585876Y0025854D01*
X0585860Y0025910D01*
X0585841Y0025964D01*
X0585818Y0026016D01*
X0585791Y0026067D01*
X0585761Y0026117D01*
X0585728Y0026164D01*
X0585692Y0026208D01*
X0585653Y0026250D01*
X0585611Y0026290D01*
X0585566Y0026326D01*
X0585519Y0026359D01*
X0585470Y0026389D01*
X0585419Y0026416D01*
X0585367Y0026439D01*
X0585366Y0026439D02*
X0583727Y0027094D01*
X0583727Y0027095D02*
X0583675Y0027118D01*
X0583624Y0027145D01*
X0583575Y0027175D01*
X0583528Y0027208D01*
X0583483Y0027244D01*
X0583441Y0027284D01*
X0583402Y0027326D01*
X0583366Y0027370D01*
X0583333Y0027417D01*
X0583303Y0027467D01*
X0583276Y0027518D01*
X0583253Y0027570D01*
X0583234Y0027624D01*
X0583218Y0027680D01*
X0583206Y0027736D01*
X0583198Y0027793D01*
X0583194Y0027850D01*
X0583193Y0027908D01*
X0583197Y0027965D01*
X0583204Y0028022D01*
X0583216Y0028079D01*
X0583231Y0028134D01*
X0583249Y0028189D01*
X0583272Y0028242D01*
X0583298Y0028293D01*
X0583327Y0028342D01*
X0583360Y0028390D01*
X0583396Y0028435D01*
X0583434Y0028477D01*
X0583476Y0028517D01*
X0583520Y0028554D01*
X0583567Y0028588D01*
X0583615Y0028619D01*
X0583666Y0028646D01*
X0583718Y0028670D01*
X0583772Y0028690D01*
X0583827Y0028706D01*
X0583883Y0028719D01*
X0583940Y0028728D01*
X0583998Y0028733D01*
X0584055Y0028734D01*
X0584055Y0028733D02*
X0584172Y0028729D01*
X0584289Y0028722D01*
X0584405Y0028711D01*
X0584522Y0028697D01*
X0584637Y0028678D01*
X0584752Y0028657D01*
X0584866Y0028631D01*
X0584980Y0028602D01*
X0585092Y0028570D01*
X0585204Y0028534D01*
X0585314Y0028494D01*
X0585423Y0028451D01*
X0585530Y0028405D01*
X0588580Y0027750D02*
X0588580Y0025783D01*
X0588582Y0025721D01*
X0588588Y0025660D01*
X0588597Y0025599D01*
X0588611Y0025539D01*
X0588628Y0025479D01*
X0588649Y0025421D01*
X0588674Y0025364D01*
X0588702Y0025309D01*
X0588733Y0025256D01*
X0588768Y0025205D01*
X0588806Y0025156D01*
X0588846Y0025110D01*
X0588890Y0025066D01*
X0588936Y0025026D01*
X0588985Y0024988D01*
X0589036Y0024953D01*
X0589089Y0024922D01*
X0589144Y0024894D01*
X0589201Y0024869D01*
X0589259Y0024848D01*
X0589319Y0024831D01*
X0589379Y0024817D01*
X0589440Y0024808D01*
X0589501Y0024802D01*
X0589563Y0024800D01*
X0590874Y0024800D01*
X0593287Y0026111D02*
X0593287Y0027422D01*
X0593289Y0027493D01*
X0593295Y0027564D01*
X0593304Y0027634D01*
X0593318Y0027704D01*
X0593335Y0027773D01*
X0593356Y0027841D01*
X0593380Y0027907D01*
X0593408Y0027972D01*
X0593440Y0028036D01*
X0593475Y0028098D01*
X0593513Y0028158D01*
X0593554Y0028215D01*
X0593599Y0028271D01*
X0593646Y0028324D01*
X0593696Y0028374D01*
X0593749Y0028421D01*
X0593805Y0028466D01*
X0593862Y0028507D01*
X0593922Y0028545D01*
X0593984Y0028580D01*
X0594048Y0028612D01*
X0594113Y0028640D01*
X0594179Y0028664D01*
X0594247Y0028685D01*
X0594316Y0028702D01*
X0594386Y0028716D01*
X0594456Y0028725D01*
X0594527Y0028731D01*
X0594598Y0028733D01*
X0594669Y0028731D01*
X0594740Y0028725D01*
X0594810Y0028716D01*
X0594880Y0028702D01*
X0594949Y0028685D01*
X0595017Y0028664D01*
X0595083Y0028640D01*
X0595148Y0028612D01*
X0595212Y0028580D01*
X0595274Y0028545D01*
X0595334Y0028507D01*
X0595391Y0028466D01*
X0595447Y0028421D01*
X0595500Y0028374D01*
X0595550Y0028324D01*
X0595597Y0028271D01*
X0595642Y0028215D01*
X0595683Y0028158D01*
X0595721Y0028098D01*
X0595756Y0028036D01*
X0595788Y0027972D01*
X0595816Y0027907D01*
X0595840Y0027841D01*
X0595861Y0027773D01*
X0595878Y0027704D01*
X0595892Y0027634D01*
X0595901Y0027564D01*
X0595907Y0027493D01*
X0595909Y0027422D01*
X0595910Y0027422D02*
X0595910Y0026111D01*
X0595909Y0026111D02*
X0595907Y0026040D01*
X0595901Y0025969D01*
X0595892Y0025899D01*
X0595878Y0025829D01*
X0595861Y0025760D01*
X0595840Y0025692D01*
X0595816Y0025626D01*
X0595788Y0025561D01*
X0595756Y0025497D01*
X0595721Y0025435D01*
X0595683Y0025375D01*
X0595642Y0025318D01*
X0595597Y0025262D01*
X0595550Y0025209D01*
X0595500Y0025159D01*
X0595447Y0025112D01*
X0595391Y0025067D01*
X0595334Y0025026D01*
X0595274Y0024988D01*
X0595212Y0024953D01*
X0595148Y0024921D01*
X0595083Y0024893D01*
X0595017Y0024869D01*
X0594949Y0024848D01*
X0594880Y0024831D01*
X0594810Y0024817D01*
X0594740Y0024808D01*
X0594669Y0024802D01*
X0594598Y0024800D01*
X0594527Y0024802D01*
X0594456Y0024808D01*
X0594386Y0024817D01*
X0594316Y0024831D01*
X0594247Y0024848D01*
X0594179Y0024869D01*
X0594113Y0024893D01*
X0594048Y0024921D01*
X0593984Y0024953D01*
X0593922Y0024988D01*
X0593862Y0025026D01*
X0593805Y0025067D01*
X0593749Y0025112D01*
X0593696Y0025159D01*
X0593646Y0025209D01*
X0593599Y0025262D01*
X0593554Y0025318D01*
X0593513Y0025375D01*
X0593475Y0025435D01*
X0593440Y0025497D01*
X0593408Y0025561D01*
X0593380Y0025626D01*
X0593356Y0025692D01*
X0593335Y0025760D01*
X0593318Y0025829D01*
X0593304Y0025899D01*
X0593295Y0025969D01*
X0593289Y0026040D01*
X0593287Y0026111D01*
X0590874Y0028733D02*
X0589563Y0028733D01*
X0589501Y0028731D01*
X0589440Y0028725D01*
X0589379Y0028716D01*
X0589319Y0028702D01*
X0589259Y0028685D01*
X0589201Y0028664D01*
X0589144Y0028639D01*
X0589089Y0028611D01*
X0589036Y0028580D01*
X0588985Y0028545D01*
X0588936Y0028507D01*
X0588890Y0028467D01*
X0588846Y0028423D01*
X0588806Y0028377D01*
X0588768Y0028328D01*
X0588733Y0028277D01*
X0588702Y0028224D01*
X0588674Y0028169D01*
X0588649Y0028112D01*
X0588628Y0028054D01*
X0588611Y0027994D01*
X0588597Y0027934D01*
X0588588Y0027873D01*
X0588582Y0027812D01*
X0588580Y0027750D01*
X0580359Y0027094D02*
X0576426Y0027094D01*
X0573755Y0028733D02*
X0572444Y0024800D01*
X0571133Y0028733D01*
X0598876Y0028733D02*
X0598876Y0024800D01*
X0600843Y0028078D02*
X0600843Y0028733D01*
X0598876Y0028733D01*
X0602929Y0027422D02*
X0602929Y0025783D01*
X0602931Y0025721D01*
X0602937Y0025660D01*
X0602946Y0025599D01*
X0602960Y0025539D01*
X0602977Y0025479D01*
X0602998Y0025421D01*
X0603023Y0025364D01*
X0603051Y0025309D01*
X0603082Y0025256D01*
X0603117Y0025205D01*
X0603155Y0025156D01*
X0603195Y0025110D01*
X0603239Y0025066D01*
X0603285Y0025026D01*
X0603334Y0024988D01*
X0603385Y0024953D01*
X0603438Y0024922D01*
X0603493Y0024894D01*
X0603550Y0024869D01*
X0603608Y0024848D01*
X0603668Y0024831D01*
X0603728Y0024817D01*
X0603789Y0024808D01*
X0603850Y0024802D01*
X0603912Y0024800D01*
X0605551Y0024800D01*
X0605551Y0026767D02*
X0602929Y0026767D01*
X0602929Y0027422D02*
X0602931Y0027493D01*
X0602937Y0027564D01*
X0602946Y0027634D01*
X0602960Y0027704D01*
X0602977Y0027773D01*
X0602998Y0027841D01*
X0603022Y0027907D01*
X0603050Y0027972D01*
X0603082Y0028036D01*
X0603117Y0028098D01*
X0603155Y0028158D01*
X0603196Y0028215D01*
X0603241Y0028271D01*
X0603288Y0028324D01*
X0603338Y0028374D01*
X0603391Y0028421D01*
X0603447Y0028466D01*
X0603504Y0028507D01*
X0603564Y0028545D01*
X0603626Y0028580D01*
X0603690Y0028612D01*
X0603755Y0028640D01*
X0603821Y0028664D01*
X0603889Y0028685D01*
X0603958Y0028702D01*
X0604028Y0028716D01*
X0604098Y0028725D01*
X0604169Y0028731D01*
X0604240Y0028733D01*
X0604311Y0028731D01*
X0604382Y0028725D01*
X0604452Y0028716D01*
X0604522Y0028702D01*
X0604591Y0028685D01*
X0604659Y0028664D01*
X0604725Y0028640D01*
X0604790Y0028612D01*
X0604854Y0028580D01*
X0604916Y0028545D01*
X0604976Y0028507D01*
X0605033Y0028466D01*
X0605089Y0028421D01*
X0605142Y0028374D01*
X0605192Y0028324D01*
X0605239Y0028271D01*
X0605284Y0028215D01*
X0605325Y0028158D01*
X0605363Y0028098D01*
X0605398Y0028036D01*
X0605430Y0027972D01*
X0605458Y0027907D01*
X0605482Y0027841D01*
X0605503Y0027773D01*
X0605520Y0027704D01*
X0605534Y0027634D01*
X0605543Y0027564D01*
X0605549Y0027493D01*
X0605551Y0027422D01*
X0605551Y0026767D01*
X0605551Y0630800D02*
X0603912Y0630800D01*
X0603850Y0630802D01*
X0603789Y0630808D01*
X0603728Y0630817D01*
X0603668Y0630831D01*
X0603608Y0630848D01*
X0603550Y0630869D01*
X0603493Y0630894D01*
X0603438Y0630922D01*
X0603385Y0630953D01*
X0603334Y0630988D01*
X0603285Y0631026D01*
X0603239Y0631066D01*
X0603195Y0631110D01*
X0603155Y0631156D01*
X0603117Y0631205D01*
X0603082Y0631256D01*
X0603051Y0631309D01*
X0603023Y0631364D01*
X0602998Y0631421D01*
X0602977Y0631479D01*
X0602960Y0631539D01*
X0602946Y0631599D01*
X0602937Y0631660D01*
X0602931Y0631721D01*
X0602929Y0631783D01*
X0602929Y0633422D01*
X0602929Y0632767D02*
X0605551Y0632767D01*
X0605551Y0633422D01*
X0605549Y0633493D01*
X0605543Y0633564D01*
X0605534Y0633634D01*
X0605520Y0633704D01*
X0605503Y0633773D01*
X0605482Y0633841D01*
X0605458Y0633907D01*
X0605430Y0633972D01*
X0605398Y0634036D01*
X0605363Y0634098D01*
X0605325Y0634158D01*
X0605284Y0634215D01*
X0605239Y0634271D01*
X0605192Y0634324D01*
X0605142Y0634374D01*
X0605089Y0634421D01*
X0605033Y0634466D01*
X0604976Y0634507D01*
X0604916Y0634545D01*
X0604854Y0634580D01*
X0604790Y0634612D01*
X0604725Y0634640D01*
X0604659Y0634664D01*
X0604591Y0634685D01*
X0604522Y0634702D01*
X0604452Y0634716D01*
X0604382Y0634725D01*
X0604311Y0634731D01*
X0604240Y0634733D01*
X0604169Y0634731D01*
X0604098Y0634725D01*
X0604028Y0634716D01*
X0603958Y0634702D01*
X0603889Y0634685D01*
X0603821Y0634664D01*
X0603755Y0634640D01*
X0603690Y0634612D01*
X0603626Y0634580D01*
X0603564Y0634545D01*
X0603504Y0634507D01*
X0603447Y0634466D01*
X0603391Y0634421D01*
X0603338Y0634374D01*
X0603288Y0634324D01*
X0603241Y0634271D01*
X0603196Y0634215D01*
X0603155Y0634158D01*
X0603117Y0634098D01*
X0603082Y0634036D01*
X0603050Y0633972D01*
X0603022Y0633907D01*
X0602998Y0633841D01*
X0602977Y0633773D01*
X0602960Y0633704D01*
X0602946Y0633634D01*
X0602937Y0633564D01*
X0602931Y0633493D01*
X0602929Y0633422D01*
X0600843Y0634078D02*
X0600843Y0634733D01*
X0598876Y0634733D01*
X0598876Y0630800D01*
X0595910Y0632111D02*
X0595910Y0633422D01*
X0595909Y0633422D02*
X0595907Y0633493D01*
X0595901Y0633564D01*
X0595892Y0633634D01*
X0595878Y0633704D01*
X0595861Y0633773D01*
X0595840Y0633841D01*
X0595816Y0633907D01*
X0595788Y0633972D01*
X0595756Y0634036D01*
X0595721Y0634098D01*
X0595683Y0634158D01*
X0595642Y0634215D01*
X0595597Y0634271D01*
X0595550Y0634324D01*
X0595500Y0634374D01*
X0595447Y0634421D01*
X0595391Y0634466D01*
X0595334Y0634507D01*
X0595274Y0634545D01*
X0595212Y0634580D01*
X0595148Y0634612D01*
X0595083Y0634640D01*
X0595017Y0634664D01*
X0594949Y0634685D01*
X0594880Y0634702D01*
X0594810Y0634716D01*
X0594740Y0634725D01*
X0594669Y0634731D01*
X0594598Y0634733D01*
X0594527Y0634731D01*
X0594456Y0634725D01*
X0594386Y0634716D01*
X0594316Y0634702D01*
X0594247Y0634685D01*
X0594179Y0634664D01*
X0594113Y0634640D01*
X0594048Y0634612D01*
X0593984Y0634580D01*
X0593922Y0634545D01*
X0593862Y0634507D01*
X0593805Y0634466D01*
X0593749Y0634421D01*
X0593696Y0634374D01*
X0593646Y0634324D01*
X0593599Y0634271D01*
X0593554Y0634215D01*
X0593513Y0634158D01*
X0593475Y0634098D01*
X0593440Y0634036D01*
X0593408Y0633972D01*
X0593380Y0633907D01*
X0593356Y0633841D01*
X0593335Y0633773D01*
X0593318Y0633704D01*
X0593304Y0633634D01*
X0593295Y0633564D01*
X0593289Y0633493D01*
X0593287Y0633422D01*
X0593287Y0632111D01*
X0593289Y0632040D01*
X0593295Y0631969D01*
X0593304Y0631899D01*
X0593318Y0631829D01*
X0593335Y0631760D01*
X0593356Y0631692D01*
X0593380Y0631626D01*
X0593408Y0631561D01*
X0593440Y0631497D01*
X0593475Y0631435D01*
X0593513Y0631375D01*
X0593554Y0631318D01*
X0593599Y0631262D01*
X0593646Y0631209D01*
X0593696Y0631159D01*
X0593749Y0631112D01*
X0593805Y0631067D01*
X0593862Y0631026D01*
X0593922Y0630988D01*
X0593984Y0630953D01*
X0594048Y0630921D01*
X0594113Y0630893D01*
X0594179Y0630869D01*
X0594247Y0630848D01*
X0594316Y0630831D01*
X0594386Y0630817D01*
X0594456Y0630808D01*
X0594527Y0630802D01*
X0594598Y0630800D01*
X0594669Y0630802D01*
X0594740Y0630808D01*
X0594810Y0630817D01*
X0594880Y0630831D01*
X0594949Y0630848D01*
X0595017Y0630869D01*
X0595083Y0630893D01*
X0595148Y0630921D01*
X0595212Y0630953D01*
X0595274Y0630988D01*
X0595334Y0631026D01*
X0595391Y0631067D01*
X0595447Y0631112D01*
X0595500Y0631159D01*
X0595550Y0631209D01*
X0595597Y0631262D01*
X0595642Y0631318D01*
X0595683Y0631375D01*
X0595721Y0631435D01*
X0595756Y0631497D01*
X0595788Y0631561D01*
X0595816Y0631626D01*
X0595840Y0631692D01*
X0595861Y0631760D01*
X0595878Y0631829D01*
X0595892Y0631899D01*
X0595901Y0631969D01*
X0595907Y0632040D01*
X0595909Y0632111D01*
X0590874Y0630800D02*
X0589563Y0630800D01*
X0589501Y0630802D01*
X0589440Y0630808D01*
X0589379Y0630817D01*
X0589319Y0630831D01*
X0589259Y0630848D01*
X0589201Y0630869D01*
X0589144Y0630894D01*
X0589089Y0630922D01*
X0589036Y0630953D01*
X0588985Y0630988D01*
X0588936Y0631026D01*
X0588890Y0631066D01*
X0588846Y0631110D01*
X0588806Y0631156D01*
X0588768Y0631205D01*
X0588733Y0631256D01*
X0588702Y0631309D01*
X0588674Y0631364D01*
X0588649Y0631421D01*
X0588628Y0631479D01*
X0588611Y0631539D01*
X0588597Y0631599D01*
X0588588Y0631660D01*
X0588582Y0631721D01*
X0588580Y0631783D01*
X0588580Y0633750D01*
X0588582Y0633812D01*
X0588588Y0633873D01*
X0588597Y0633934D01*
X0588611Y0633994D01*
X0588628Y0634054D01*
X0588649Y0634112D01*
X0588674Y0634169D01*
X0588702Y0634224D01*
X0588733Y0634277D01*
X0588768Y0634328D01*
X0588806Y0634377D01*
X0588846Y0634423D01*
X0588890Y0634467D01*
X0588936Y0634507D01*
X0588985Y0634545D01*
X0589036Y0634580D01*
X0589089Y0634611D01*
X0589144Y0634639D01*
X0589201Y0634664D01*
X0589259Y0634685D01*
X0589319Y0634702D01*
X0589379Y0634716D01*
X0589440Y0634725D01*
X0589501Y0634731D01*
X0589563Y0634733D01*
X0590874Y0634733D01*
X0585366Y0632439D02*
X0583727Y0633094D01*
X0583727Y0633095D02*
X0583675Y0633118D01*
X0583624Y0633145D01*
X0583575Y0633175D01*
X0583528Y0633208D01*
X0583483Y0633244D01*
X0583441Y0633284D01*
X0583402Y0633326D01*
X0583366Y0633370D01*
X0583333Y0633417D01*
X0583303Y0633467D01*
X0583276Y0633518D01*
X0583253Y0633570D01*
X0583234Y0633624D01*
X0583218Y0633680D01*
X0583206Y0633736D01*
X0583198Y0633793D01*
X0583194Y0633850D01*
X0583193Y0633908D01*
X0583197Y0633965D01*
X0583204Y0634022D01*
X0583216Y0634079D01*
X0583231Y0634134D01*
X0583249Y0634189D01*
X0583272Y0634242D01*
X0583298Y0634293D01*
X0583327Y0634342D01*
X0583360Y0634390D01*
X0583396Y0634435D01*
X0583434Y0634477D01*
X0583476Y0634517D01*
X0583520Y0634554D01*
X0583567Y0634588D01*
X0583615Y0634619D01*
X0583666Y0634646D01*
X0583718Y0634670D01*
X0583772Y0634690D01*
X0583827Y0634706D01*
X0583883Y0634719D01*
X0583940Y0634728D01*
X0583998Y0634733D01*
X0584055Y0634734D01*
X0583236Y0631128D02*
X0583370Y0631082D01*
X0583505Y0631039D01*
X0583641Y0631000D01*
X0583778Y0630964D01*
X0583915Y0630932D01*
X0584054Y0630903D01*
X0584193Y0630877D01*
X0584333Y0630856D01*
X0584474Y0630837D01*
X0584614Y0630823D01*
X0584756Y0630812D01*
X0584897Y0630804D01*
X0585039Y0630801D01*
X0585039Y0630800D02*
X0585096Y0630801D01*
X0585154Y0630806D01*
X0585211Y0630815D01*
X0585267Y0630828D01*
X0585322Y0630844D01*
X0585376Y0630864D01*
X0585428Y0630888D01*
X0585479Y0630915D01*
X0585527Y0630946D01*
X0585574Y0630980D01*
X0585618Y0631017D01*
X0585660Y0631057D01*
X0585698Y0631099D01*
X0585734Y0631144D01*
X0585767Y0631192D01*
X0585796Y0631241D01*
X0585822Y0631292D01*
X0585845Y0631345D01*
X0585863Y0631400D01*
X0585878Y0631455D01*
X0585890Y0631512D01*
X0585897Y0631569D01*
X0585901Y0631626D01*
X0585900Y0631684D01*
X0585896Y0631741D01*
X0585888Y0631798D01*
X0585876Y0631854D01*
X0585860Y0631910D01*
X0585841Y0631964D01*
X0585818Y0632016D01*
X0585791Y0632067D01*
X0585761Y0632117D01*
X0585728Y0632164D01*
X0585692Y0632208D01*
X0585653Y0632250D01*
X0585611Y0632290D01*
X0585566Y0632326D01*
X0585519Y0632359D01*
X0585470Y0632389D01*
X0585419Y0632416D01*
X0585367Y0632439D01*
X0585530Y0634405D02*
X0585423Y0634451D01*
X0585314Y0634494D01*
X0585204Y0634534D01*
X0585092Y0634570D01*
X0584980Y0634602D01*
X0584866Y0634631D01*
X0584752Y0634657D01*
X0584637Y0634678D01*
X0584522Y0634697D01*
X0584405Y0634711D01*
X0584289Y0634722D01*
X0584172Y0634729D01*
X0584055Y0634733D01*
X0580359Y0633094D02*
X0576426Y0633094D01*
X0573755Y0634733D02*
X0572444Y0630800D01*
X0571133Y0634733D01*
X0524551Y0690800D02*
X0522912Y0690800D01*
X0522850Y0690802D01*
X0522789Y0690808D01*
X0522728Y0690817D01*
X0522668Y0690831D01*
X0522608Y0690848D01*
X0522550Y0690869D01*
X0522493Y0690894D01*
X0522438Y0690922D01*
X0522385Y0690953D01*
X0522334Y0690988D01*
X0522285Y0691026D01*
X0522239Y0691066D01*
X0522195Y0691110D01*
X0522155Y0691156D01*
X0522117Y0691205D01*
X0522082Y0691256D01*
X0522051Y0691309D01*
X0522023Y0691364D01*
X0521998Y0691421D01*
X0521977Y0691479D01*
X0521960Y0691539D01*
X0521946Y0691599D01*
X0521937Y0691660D01*
X0521931Y0691721D01*
X0521929Y0691783D01*
X0521929Y0693422D01*
X0521929Y0692767D02*
X0524551Y0692767D01*
X0524551Y0693422D01*
X0524549Y0693493D01*
X0524543Y0693564D01*
X0524534Y0693634D01*
X0524520Y0693704D01*
X0524503Y0693773D01*
X0524482Y0693841D01*
X0524458Y0693907D01*
X0524430Y0693972D01*
X0524398Y0694036D01*
X0524363Y0694098D01*
X0524325Y0694158D01*
X0524284Y0694215D01*
X0524239Y0694271D01*
X0524192Y0694324D01*
X0524142Y0694374D01*
X0524089Y0694421D01*
X0524033Y0694466D01*
X0523976Y0694507D01*
X0523916Y0694545D01*
X0523854Y0694580D01*
X0523790Y0694612D01*
X0523725Y0694640D01*
X0523659Y0694664D01*
X0523591Y0694685D01*
X0523522Y0694702D01*
X0523452Y0694716D01*
X0523382Y0694725D01*
X0523311Y0694731D01*
X0523240Y0694733D01*
X0523169Y0694731D01*
X0523098Y0694725D01*
X0523028Y0694716D01*
X0522958Y0694702D01*
X0522889Y0694685D01*
X0522821Y0694664D01*
X0522755Y0694640D01*
X0522690Y0694612D01*
X0522626Y0694580D01*
X0522564Y0694545D01*
X0522504Y0694507D01*
X0522447Y0694466D01*
X0522391Y0694421D01*
X0522338Y0694374D01*
X0522288Y0694324D01*
X0522241Y0694271D01*
X0522196Y0694215D01*
X0522155Y0694158D01*
X0522117Y0694098D01*
X0522082Y0694036D01*
X0522050Y0693972D01*
X0522022Y0693907D01*
X0521998Y0693841D01*
X0521977Y0693773D01*
X0521960Y0693704D01*
X0521946Y0693634D01*
X0521937Y0693564D01*
X0521931Y0693493D01*
X0521929Y0693422D01*
X0519843Y0694078D02*
X0519843Y0694733D01*
X0517876Y0694733D01*
X0517876Y0690800D01*
X0514910Y0692111D02*
X0514910Y0693422D01*
X0514909Y0693422D02*
X0514907Y0693493D01*
X0514901Y0693564D01*
X0514892Y0693634D01*
X0514878Y0693704D01*
X0514861Y0693773D01*
X0514840Y0693841D01*
X0514816Y0693907D01*
X0514788Y0693972D01*
X0514756Y0694036D01*
X0514721Y0694098D01*
X0514683Y0694158D01*
X0514642Y0694215D01*
X0514597Y0694271D01*
X0514550Y0694324D01*
X0514500Y0694374D01*
X0514447Y0694421D01*
X0514391Y0694466D01*
X0514334Y0694507D01*
X0514274Y0694545D01*
X0514212Y0694580D01*
X0514148Y0694612D01*
X0514083Y0694640D01*
X0514017Y0694664D01*
X0513949Y0694685D01*
X0513880Y0694702D01*
X0513810Y0694716D01*
X0513740Y0694725D01*
X0513669Y0694731D01*
X0513598Y0694733D01*
X0513527Y0694731D01*
X0513456Y0694725D01*
X0513386Y0694716D01*
X0513316Y0694702D01*
X0513247Y0694685D01*
X0513179Y0694664D01*
X0513113Y0694640D01*
X0513048Y0694612D01*
X0512984Y0694580D01*
X0512922Y0694545D01*
X0512862Y0694507D01*
X0512805Y0694466D01*
X0512749Y0694421D01*
X0512696Y0694374D01*
X0512646Y0694324D01*
X0512599Y0694271D01*
X0512554Y0694215D01*
X0512513Y0694158D01*
X0512475Y0694098D01*
X0512440Y0694036D01*
X0512408Y0693972D01*
X0512380Y0693907D01*
X0512356Y0693841D01*
X0512335Y0693773D01*
X0512318Y0693704D01*
X0512304Y0693634D01*
X0512295Y0693564D01*
X0512289Y0693493D01*
X0512287Y0693422D01*
X0512287Y0692111D01*
X0512289Y0692040D01*
X0512295Y0691969D01*
X0512304Y0691899D01*
X0512318Y0691829D01*
X0512335Y0691760D01*
X0512356Y0691692D01*
X0512380Y0691626D01*
X0512408Y0691561D01*
X0512440Y0691497D01*
X0512475Y0691435D01*
X0512513Y0691375D01*
X0512554Y0691318D01*
X0512599Y0691262D01*
X0512646Y0691209D01*
X0512696Y0691159D01*
X0512749Y0691112D01*
X0512805Y0691067D01*
X0512862Y0691026D01*
X0512922Y0690988D01*
X0512984Y0690953D01*
X0513048Y0690921D01*
X0513113Y0690893D01*
X0513179Y0690869D01*
X0513247Y0690848D01*
X0513316Y0690831D01*
X0513386Y0690817D01*
X0513456Y0690808D01*
X0513527Y0690802D01*
X0513598Y0690800D01*
X0513669Y0690802D01*
X0513740Y0690808D01*
X0513810Y0690817D01*
X0513880Y0690831D01*
X0513949Y0690848D01*
X0514017Y0690869D01*
X0514083Y0690893D01*
X0514148Y0690921D01*
X0514212Y0690953D01*
X0514274Y0690988D01*
X0514334Y0691026D01*
X0514391Y0691067D01*
X0514447Y0691112D01*
X0514500Y0691159D01*
X0514550Y0691209D01*
X0514597Y0691262D01*
X0514642Y0691318D01*
X0514683Y0691375D01*
X0514721Y0691435D01*
X0514756Y0691497D01*
X0514788Y0691561D01*
X0514816Y0691626D01*
X0514840Y0691692D01*
X0514861Y0691760D01*
X0514878Y0691829D01*
X0514892Y0691899D01*
X0514901Y0691969D01*
X0514907Y0692040D01*
X0514909Y0692111D01*
X0509874Y0690800D02*
X0508563Y0690800D01*
X0508501Y0690802D01*
X0508440Y0690808D01*
X0508379Y0690817D01*
X0508319Y0690831D01*
X0508259Y0690848D01*
X0508201Y0690869D01*
X0508144Y0690894D01*
X0508089Y0690922D01*
X0508036Y0690953D01*
X0507985Y0690988D01*
X0507936Y0691026D01*
X0507890Y0691066D01*
X0507846Y0691110D01*
X0507806Y0691156D01*
X0507768Y0691205D01*
X0507733Y0691256D01*
X0507702Y0691309D01*
X0507674Y0691364D01*
X0507649Y0691421D01*
X0507628Y0691479D01*
X0507611Y0691539D01*
X0507597Y0691599D01*
X0507588Y0691660D01*
X0507582Y0691721D01*
X0507580Y0691783D01*
X0507580Y0693750D01*
X0507582Y0693812D01*
X0507588Y0693873D01*
X0507597Y0693934D01*
X0507611Y0693994D01*
X0507628Y0694054D01*
X0507649Y0694112D01*
X0507674Y0694169D01*
X0507702Y0694224D01*
X0507733Y0694277D01*
X0507768Y0694328D01*
X0507806Y0694377D01*
X0507846Y0694423D01*
X0507890Y0694467D01*
X0507936Y0694507D01*
X0507985Y0694545D01*
X0508036Y0694580D01*
X0508089Y0694611D01*
X0508144Y0694639D01*
X0508201Y0694664D01*
X0508259Y0694685D01*
X0508319Y0694702D01*
X0508379Y0694716D01*
X0508440Y0694725D01*
X0508501Y0694731D01*
X0508563Y0694733D01*
X0509874Y0694733D01*
X0504366Y0692439D02*
X0502727Y0693094D01*
X0502727Y0693095D02*
X0502675Y0693118D01*
X0502624Y0693145D01*
X0502575Y0693175D01*
X0502528Y0693208D01*
X0502483Y0693244D01*
X0502441Y0693284D01*
X0502402Y0693326D01*
X0502366Y0693370D01*
X0502333Y0693417D01*
X0502303Y0693467D01*
X0502276Y0693518D01*
X0502253Y0693570D01*
X0502234Y0693624D01*
X0502218Y0693680D01*
X0502206Y0693736D01*
X0502198Y0693793D01*
X0502194Y0693850D01*
X0502193Y0693908D01*
X0502197Y0693965D01*
X0502204Y0694022D01*
X0502216Y0694079D01*
X0502231Y0694134D01*
X0502249Y0694189D01*
X0502272Y0694242D01*
X0502298Y0694293D01*
X0502327Y0694342D01*
X0502360Y0694390D01*
X0502396Y0694435D01*
X0502434Y0694477D01*
X0502476Y0694517D01*
X0502520Y0694554D01*
X0502567Y0694588D01*
X0502615Y0694619D01*
X0502666Y0694646D01*
X0502718Y0694670D01*
X0502772Y0694690D01*
X0502827Y0694706D01*
X0502883Y0694719D01*
X0502940Y0694728D01*
X0502998Y0694733D01*
X0503055Y0694734D01*
X0502236Y0691128D02*
X0502370Y0691082D01*
X0502505Y0691039D01*
X0502641Y0691000D01*
X0502778Y0690964D01*
X0502915Y0690932D01*
X0503054Y0690903D01*
X0503193Y0690877D01*
X0503333Y0690856D01*
X0503474Y0690837D01*
X0503614Y0690823D01*
X0503756Y0690812D01*
X0503897Y0690804D01*
X0504039Y0690801D01*
X0504039Y0690800D02*
X0504096Y0690801D01*
X0504154Y0690806D01*
X0504211Y0690815D01*
X0504267Y0690828D01*
X0504322Y0690844D01*
X0504376Y0690864D01*
X0504428Y0690888D01*
X0504479Y0690915D01*
X0504527Y0690946D01*
X0504574Y0690980D01*
X0504618Y0691017D01*
X0504660Y0691057D01*
X0504698Y0691099D01*
X0504734Y0691144D01*
X0504767Y0691192D01*
X0504796Y0691241D01*
X0504822Y0691292D01*
X0504845Y0691345D01*
X0504863Y0691400D01*
X0504878Y0691455D01*
X0504890Y0691512D01*
X0504897Y0691569D01*
X0504901Y0691626D01*
X0504900Y0691684D01*
X0504896Y0691741D01*
X0504888Y0691798D01*
X0504876Y0691854D01*
X0504860Y0691910D01*
X0504841Y0691964D01*
X0504818Y0692016D01*
X0504791Y0692067D01*
X0504761Y0692117D01*
X0504728Y0692164D01*
X0504692Y0692208D01*
X0504653Y0692250D01*
X0504611Y0692290D01*
X0504566Y0692326D01*
X0504519Y0692359D01*
X0504470Y0692389D01*
X0504419Y0692416D01*
X0504367Y0692439D01*
X0504530Y0694405D02*
X0504423Y0694451D01*
X0504314Y0694494D01*
X0504204Y0694534D01*
X0504092Y0694570D01*
X0503980Y0694602D01*
X0503866Y0694631D01*
X0503752Y0694657D01*
X0503637Y0694678D01*
X0503522Y0694697D01*
X0503405Y0694711D01*
X0503289Y0694722D01*
X0503172Y0694729D01*
X0503055Y0694733D01*
X0499359Y0693094D02*
X0495426Y0693094D01*
X0492755Y0694733D02*
X0491444Y0690800D01*
X0490133Y0694733D01*
X0432551Y0693422D02*
X0432551Y0692767D01*
X0429929Y0692767D01*
X0429929Y0693422D02*
X0429929Y0691783D01*
X0429931Y0691721D01*
X0429937Y0691660D01*
X0429946Y0691599D01*
X0429960Y0691539D01*
X0429977Y0691479D01*
X0429998Y0691421D01*
X0430023Y0691364D01*
X0430051Y0691309D01*
X0430082Y0691256D01*
X0430117Y0691205D01*
X0430155Y0691156D01*
X0430195Y0691110D01*
X0430239Y0691066D01*
X0430285Y0691026D01*
X0430334Y0690988D01*
X0430385Y0690953D01*
X0430438Y0690922D01*
X0430493Y0690894D01*
X0430550Y0690869D01*
X0430608Y0690848D01*
X0430668Y0690831D01*
X0430728Y0690817D01*
X0430789Y0690808D01*
X0430850Y0690802D01*
X0430912Y0690800D01*
X0432551Y0690800D01*
X0432551Y0693422D02*
X0432549Y0693493D01*
X0432543Y0693564D01*
X0432534Y0693634D01*
X0432520Y0693704D01*
X0432503Y0693773D01*
X0432482Y0693841D01*
X0432458Y0693907D01*
X0432430Y0693972D01*
X0432398Y0694036D01*
X0432363Y0694098D01*
X0432325Y0694158D01*
X0432284Y0694215D01*
X0432239Y0694271D01*
X0432192Y0694324D01*
X0432142Y0694374D01*
X0432089Y0694421D01*
X0432033Y0694466D01*
X0431976Y0694507D01*
X0431916Y0694545D01*
X0431854Y0694580D01*
X0431790Y0694612D01*
X0431725Y0694640D01*
X0431659Y0694664D01*
X0431591Y0694685D01*
X0431522Y0694702D01*
X0431452Y0694716D01*
X0431382Y0694725D01*
X0431311Y0694731D01*
X0431240Y0694733D01*
X0431169Y0694731D01*
X0431098Y0694725D01*
X0431028Y0694716D01*
X0430958Y0694702D01*
X0430889Y0694685D01*
X0430821Y0694664D01*
X0430755Y0694640D01*
X0430690Y0694612D01*
X0430626Y0694580D01*
X0430564Y0694545D01*
X0430504Y0694507D01*
X0430447Y0694466D01*
X0430391Y0694421D01*
X0430338Y0694374D01*
X0430288Y0694324D01*
X0430241Y0694271D01*
X0430196Y0694215D01*
X0430155Y0694158D01*
X0430117Y0694098D01*
X0430082Y0694036D01*
X0430050Y0693972D01*
X0430022Y0693907D01*
X0429998Y0693841D01*
X0429977Y0693773D01*
X0429960Y0693704D01*
X0429946Y0693634D01*
X0429937Y0693564D01*
X0429931Y0693493D01*
X0429929Y0693422D01*
X0427843Y0694078D02*
X0427843Y0694733D01*
X0425876Y0694733D01*
X0425876Y0690800D01*
X0422910Y0692111D02*
X0422910Y0693422D01*
X0422909Y0693422D02*
X0422907Y0693493D01*
X0422901Y0693564D01*
X0422892Y0693634D01*
X0422878Y0693704D01*
X0422861Y0693773D01*
X0422840Y0693841D01*
X0422816Y0693907D01*
X0422788Y0693972D01*
X0422756Y0694036D01*
X0422721Y0694098D01*
X0422683Y0694158D01*
X0422642Y0694215D01*
X0422597Y0694271D01*
X0422550Y0694324D01*
X0422500Y0694374D01*
X0422447Y0694421D01*
X0422391Y0694466D01*
X0422334Y0694507D01*
X0422274Y0694545D01*
X0422212Y0694580D01*
X0422148Y0694612D01*
X0422083Y0694640D01*
X0422017Y0694664D01*
X0421949Y0694685D01*
X0421880Y0694702D01*
X0421810Y0694716D01*
X0421740Y0694725D01*
X0421669Y0694731D01*
X0421598Y0694733D01*
X0421527Y0694731D01*
X0421456Y0694725D01*
X0421386Y0694716D01*
X0421316Y0694702D01*
X0421247Y0694685D01*
X0421179Y0694664D01*
X0421113Y0694640D01*
X0421048Y0694612D01*
X0420984Y0694580D01*
X0420922Y0694545D01*
X0420862Y0694507D01*
X0420805Y0694466D01*
X0420749Y0694421D01*
X0420696Y0694374D01*
X0420646Y0694324D01*
X0420599Y0694271D01*
X0420554Y0694215D01*
X0420513Y0694158D01*
X0420475Y0694098D01*
X0420440Y0694036D01*
X0420408Y0693972D01*
X0420380Y0693907D01*
X0420356Y0693841D01*
X0420335Y0693773D01*
X0420318Y0693704D01*
X0420304Y0693634D01*
X0420295Y0693564D01*
X0420289Y0693493D01*
X0420287Y0693422D01*
X0420287Y0692111D01*
X0420289Y0692040D01*
X0420295Y0691969D01*
X0420304Y0691899D01*
X0420318Y0691829D01*
X0420335Y0691760D01*
X0420356Y0691692D01*
X0420380Y0691626D01*
X0420408Y0691561D01*
X0420440Y0691497D01*
X0420475Y0691435D01*
X0420513Y0691375D01*
X0420554Y0691318D01*
X0420599Y0691262D01*
X0420646Y0691209D01*
X0420696Y0691159D01*
X0420749Y0691112D01*
X0420805Y0691067D01*
X0420862Y0691026D01*
X0420922Y0690988D01*
X0420984Y0690953D01*
X0421048Y0690921D01*
X0421113Y0690893D01*
X0421179Y0690869D01*
X0421247Y0690848D01*
X0421316Y0690831D01*
X0421386Y0690817D01*
X0421456Y0690808D01*
X0421527Y0690802D01*
X0421598Y0690800D01*
X0421669Y0690802D01*
X0421740Y0690808D01*
X0421810Y0690817D01*
X0421880Y0690831D01*
X0421949Y0690848D01*
X0422017Y0690869D01*
X0422083Y0690893D01*
X0422148Y0690921D01*
X0422212Y0690953D01*
X0422274Y0690988D01*
X0422334Y0691026D01*
X0422391Y0691067D01*
X0422447Y0691112D01*
X0422500Y0691159D01*
X0422550Y0691209D01*
X0422597Y0691262D01*
X0422642Y0691318D01*
X0422683Y0691375D01*
X0422721Y0691435D01*
X0422756Y0691497D01*
X0422788Y0691561D01*
X0422816Y0691626D01*
X0422840Y0691692D01*
X0422861Y0691760D01*
X0422878Y0691829D01*
X0422892Y0691899D01*
X0422901Y0691969D01*
X0422907Y0692040D01*
X0422909Y0692111D01*
X0417874Y0690800D02*
X0416563Y0690800D01*
X0416501Y0690802D01*
X0416440Y0690808D01*
X0416379Y0690817D01*
X0416319Y0690831D01*
X0416259Y0690848D01*
X0416201Y0690869D01*
X0416144Y0690894D01*
X0416089Y0690922D01*
X0416036Y0690953D01*
X0415985Y0690988D01*
X0415936Y0691026D01*
X0415890Y0691066D01*
X0415846Y0691110D01*
X0415806Y0691156D01*
X0415768Y0691205D01*
X0415733Y0691256D01*
X0415702Y0691309D01*
X0415674Y0691364D01*
X0415649Y0691421D01*
X0415628Y0691479D01*
X0415611Y0691539D01*
X0415597Y0691599D01*
X0415588Y0691660D01*
X0415582Y0691721D01*
X0415580Y0691783D01*
X0415580Y0693750D01*
X0415582Y0693812D01*
X0415588Y0693873D01*
X0415597Y0693934D01*
X0415611Y0693994D01*
X0415628Y0694054D01*
X0415649Y0694112D01*
X0415674Y0694169D01*
X0415702Y0694224D01*
X0415733Y0694277D01*
X0415768Y0694328D01*
X0415806Y0694377D01*
X0415846Y0694423D01*
X0415890Y0694467D01*
X0415936Y0694507D01*
X0415985Y0694545D01*
X0416036Y0694580D01*
X0416089Y0694611D01*
X0416144Y0694639D01*
X0416201Y0694664D01*
X0416259Y0694685D01*
X0416319Y0694702D01*
X0416379Y0694716D01*
X0416440Y0694725D01*
X0416501Y0694731D01*
X0416563Y0694733D01*
X0417874Y0694733D01*
X0412366Y0692439D02*
X0410727Y0693094D01*
X0410727Y0693095D02*
X0410675Y0693118D01*
X0410624Y0693145D01*
X0410575Y0693175D01*
X0410528Y0693208D01*
X0410483Y0693244D01*
X0410441Y0693284D01*
X0410402Y0693326D01*
X0410366Y0693370D01*
X0410333Y0693417D01*
X0410303Y0693467D01*
X0410276Y0693518D01*
X0410253Y0693570D01*
X0410234Y0693624D01*
X0410218Y0693680D01*
X0410206Y0693736D01*
X0410198Y0693793D01*
X0410194Y0693850D01*
X0410193Y0693908D01*
X0410197Y0693965D01*
X0410204Y0694022D01*
X0410216Y0694079D01*
X0410231Y0694134D01*
X0410249Y0694189D01*
X0410272Y0694242D01*
X0410298Y0694293D01*
X0410327Y0694342D01*
X0410360Y0694390D01*
X0410396Y0694435D01*
X0410434Y0694477D01*
X0410476Y0694517D01*
X0410520Y0694554D01*
X0410567Y0694588D01*
X0410615Y0694619D01*
X0410666Y0694646D01*
X0410718Y0694670D01*
X0410772Y0694690D01*
X0410827Y0694706D01*
X0410883Y0694719D01*
X0410940Y0694728D01*
X0410998Y0694733D01*
X0411055Y0694734D01*
X0410236Y0691128D02*
X0410370Y0691082D01*
X0410505Y0691039D01*
X0410641Y0691000D01*
X0410778Y0690964D01*
X0410915Y0690932D01*
X0411054Y0690903D01*
X0411193Y0690877D01*
X0411333Y0690856D01*
X0411474Y0690837D01*
X0411614Y0690823D01*
X0411756Y0690812D01*
X0411897Y0690804D01*
X0412039Y0690801D01*
X0412039Y0690800D02*
X0412096Y0690801D01*
X0412154Y0690806D01*
X0412211Y0690815D01*
X0412267Y0690828D01*
X0412322Y0690844D01*
X0412376Y0690864D01*
X0412428Y0690888D01*
X0412479Y0690915D01*
X0412527Y0690946D01*
X0412574Y0690980D01*
X0412618Y0691017D01*
X0412660Y0691057D01*
X0412698Y0691099D01*
X0412734Y0691144D01*
X0412767Y0691192D01*
X0412796Y0691241D01*
X0412822Y0691292D01*
X0412845Y0691345D01*
X0412863Y0691400D01*
X0412878Y0691455D01*
X0412890Y0691512D01*
X0412897Y0691569D01*
X0412901Y0691626D01*
X0412900Y0691684D01*
X0412896Y0691741D01*
X0412888Y0691798D01*
X0412876Y0691854D01*
X0412860Y0691910D01*
X0412841Y0691964D01*
X0412818Y0692016D01*
X0412791Y0692067D01*
X0412761Y0692117D01*
X0412728Y0692164D01*
X0412692Y0692208D01*
X0412653Y0692250D01*
X0412611Y0692290D01*
X0412566Y0692326D01*
X0412519Y0692359D01*
X0412470Y0692389D01*
X0412419Y0692416D01*
X0412367Y0692439D01*
X0412530Y0694405D02*
X0412423Y0694451D01*
X0412314Y0694494D01*
X0412204Y0694534D01*
X0412092Y0694570D01*
X0411980Y0694602D01*
X0411866Y0694631D01*
X0411752Y0694657D01*
X0411637Y0694678D01*
X0411522Y0694697D01*
X0411405Y0694711D01*
X0411289Y0694722D01*
X0411172Y0694729D01*
X0411055Y0694733D01*
X0407359Y0693094D02*
X0403426Y0693094D01*
X0400755Y0694733D02*
X0399444Y0690800D01*
X0398133Y0694733D01*
X0340551Y0693422D02*
X0340551Y0692767D01*
X0337929Y0692767D01*
X0337929Y0693422D02*
X0337929Y0691783D01*
X0337931Y0691721D01*
X0337937Y0691660D01*
X0337946Y0691599D01*
X0337960Y0691539D01*
X0337977Y0691479D01*
X0337998Y0691421D01*
X0338023Y0691364D01*
X0338051Y0691309D01*
X0338082Y0691256D01*
X0338117Y0691205D01*
X0338155Y0691156D01*
X0338195Y0691110D01*
X0338239Y0691066D01*
X0338285Y0691026D01*
X0338334Y0690988D01*
X0338385Y0690953D01*
X0338438Y0690922D01*
X0338493Y0690894D01*
X0338550Y0690869D01*
X0338608Y0690848D01*
X0338668Y0690831D01*
X0338728Y0690817D01*
X0338789Y0690808D01*
X0338850Y0690802D01*
X0338912Y0690800D01*
X0340551Y0690800D01*
X0340551Y0693422D02*
X0340549Y0693493D01*
X0340543Y0693564D01*
X0340534Y0693634D01*
X0340520Y0693704D01*
X0340503Y0693773D01*
X0340482Y0693841D01*
X0340458Y0693907D01*
X0340430Y0693972D01*
X0340398Y0694036D01*
X0340363Y0694098D01*
X0340325Y0694158D01*
X0340284Y0694215D01*
X0340239Y0694271D01*
X0340192Y0694324D01*
X0340142Y0694374D01*
X0340089Y0694421D01*
X0340033Y0694466D01*
X0339976Y0694507D01*
X0339916Y0694545D01*
X0339854Y0694580D01*
X0339790Y0694612D01*
X0339725Y0694640D01*
X0339659Y0694664D01*
X0339591Y0694685D01*
X0339522Y0694702D01*
X0339452Y0694716D01*
X0339382Y0694725D01*
X0339311Y0694731D01*
X0339240Y0694733D01*
X0339169Y0694731D01*
X0339098Y0694725D01*
X0339028Y0694716D01*
X0338958Y0694702D01*
X0338889Y0694685D01*
X0338821Y0694664D01*
X0338755Y0694640D01*
X0338690Y0694612D01*
X0338626Y0694580D01*
X0338564Y0694545D01*
X0338504Y0694507D01*
X0338447Y0694466D01*
X0338391Y0694421D01*
X0338338Y0694374D01*
X0338288Y0694324D01*
X0338241Y0694271D01*
X0338196Y0694215D01*
X0338155Y0694158D01*
X0338117Y0694098D01*
X0338082Y0694036D01*
X0338050Y0693972D01*
X0338022Y0693907D01*
X0337998Y0693841D01*
X0337977Y0693773D01*
X0337960Y0693704D01*
X0337946Y0693634D01*
X0337937Y0693564D01*
X0337931Y0693493D01*
X0337929Y0693422D01*
X0335843Y0694078D02*
X0335843Y0694733D01*
X0333876Y0694733D01*
X0333876Y0690800D01*
X0330910Y0692111D02*
X0330910Y0693422D01*
X0330909Y0693422D02*
X0330907Y0693493D01*
X0330901Y0693564D01*
X0330892Y0693634D01*
X0330878Y0693704D01*
X0330861Y0693773D01*
X0330840Y0693841D01*
X0330816Y0693907D01*
X0330788Y0693972D01*
X0330756Y0694036D01*
X0330721Y0694098D01*
X0330683Y0694158D01*
X0330642Y0694215D01*
X0330597Y0694271D01*
X0330550Y0694324D01*
X0330500Y0694374D01*
X0330447Y0694421D01*
X0330391Y0694466D01*
X0330334Y0694507D01*
X0330274Y0694545D01*
X0330212Y0694580D01*
X0330148Y0694612D01*
X0330083Y0694640D01*
X0330017Y0694664D01*
X0329949Y0694685D01*
X0329880Y0694702D01*
X0329810Y0694716D01*
X0329740Y0694725D01*
X0329669Y0694731D01*
X0329598Y0694733D01*
X0329527Y0694731D01*
X0329456Y0694725D01*
X0329386Y0694716D01*
X0329316Y0694702D01*
X0329247Y0694685D01*
X0329179Y0694664D01*
X0329113Y0694640D01*
X0329048Y0694612D01*
X0328984Y0694580D01*
X0328922Y0694545D01*
X0328862Y0694507D01*
X0328805Y0694466D01*
X0328749Y0694421D01*
X0328696Y0694374D01*
X0328646Y0694324D01*
X0328599Y0694271D01*
X0328554Y0694215D01*
X0328513Y0694158D01*
X0328475Y0694098D01*
X0328440Y0694036D01*
X0328408Y0693972D01*
X0328380Y0693907D01*
X0328356Y0693841D01*
X0328335Y0693773D01*
X0328318Y0693704D01*
X0328304Y0693634D01*
X0328295Y0693564D01*
X0328289Y0693493D01*
X0328287Y0693422D01*
X0328287Y0692111D01*
X0328289Y0692040D01*
X0328295Y0691969D01*
X0328304Y0691899D01*
X0328318Y0691829D01*
X0328335Y0691760D01*
X0328356Y0691692D01*
X0328380Y0691626D01*
X0328408Y0691561D01*
X0328440Y0691497D01*
X0328475Y0691435D01*
X0328513Y0691375D01*
X0328554Y0691318D01*
X0328599Y0691262D01*
X0328646Y0691209D01*
X0328696Y0691159D01*
X0328749Y0691112D01*
X0328805Y0691067D01*
X0328862Y0691026D01*
X0328922Y0690988D01*
X0328984Y0690953D01*
X0329048Y0690921D01*
X0329113Y0690893D01*
X0329179Y0690869D01*
X0329247Y0690848D01*
X0329316Y0690831D01*
X0329386Y0690817D01*
X0329456Y0690808D01*
X0329527Y0690802D01*
X0329598Y0690800D01*
X0329669Y0690802D01*
X0329740Y0690808D01*
X0329810Y0690817D01*
X0329880Y0690831D01*
X0329949Y0690848D01*
X0330017Y0690869D01*
X0330083Y0690893D01*
X0330148Y0690921D01*
X0330212Y0690953D01*
X0330274Y0690988D01*
X0330334Y0691026D01*
X0330391Y0691067D01*
X0330447Y0691112D01*
X0330500Y0691159D01*
X0330550Y0691209D01*
X0330597Y0691262D01*
X0330642Y0691318D01*
X0330683Y0691375D01*
X0330721Y0691435D01*
X0330756Y0691497D01*
X0330788Y0691561D01*
X0330816Y0691626D01*
X0330840Y0691692D01*
X0330861Y0691760D01*
X0330878Y0691829D01*
X0330892Y0691899D01*
X0330901Y0691969D01*
X0330907Y0692040D01*
X0330909Y0692111D01*
X0325874Y0690800D02*
X0324563Y0690800D01*
X0324501Y0690802D01*
X0324440Y0690808D01*
X0324379Y0690817D01*
X0324319Y0690831D01*
X0324259Y0690848D01*
X0324201Y0690869D01*
X0324144Y0690894D01*
X0324089Y0690922D01*
X0324036Y0690953D01*
X0323985Y0690988D01*
X0323936Y0691026D01*
X0323890Y0691066D01*
X0323846Y0691110D01*
X0323806Y0691156D01*
X0323768Y0691205D01*
X0323733Y0691256D01*
X0323702Y0691309D01*
X0323674Y0691364D01*
X0323649Y0691421D01*
X0323628Y0691479D01*
X0323611Y0691539D01*
X0323597Y0691599D01*
X0323588Y0691660D01*
X0323582Y0691721D01*
X0323580Y0691783D01*
X0323580Y0693750D01*
X0323582Y0693812D01*
X0323588Y0693873D01*
X0323597Y0693934D01*
X0323611Y0693994D01*
X0323628Y0694054D01*
X0323649Y0694112D01*
X0323674Y0694169D01*
X0323702Y0694224D01*
X0323733Y0694277D01*
X0323768Y0694328D01*
X0323806Y0694377D01*
X0323846Y0694423D01*
X0323890Y0694467D01*
X0323936Y0694507D01*
X0323985Y0694545D01*
X0324036Y0694580D01*
X0324089Y0694611D01*
X0324144Y0694639D01*
X0324201Y0694664D01*
X0324259Y0694685D01*
X0324319Y0694702D01*
X0324379Y0694716D01*
X0324440Y0694725D01*
X0324501Y0694731D01*
X0324563Y0694733D01*
X0325874Y0694733D01*
X0320366Y0692439D02*
X0318727Y0693094D01*
X0318727Y0693095D02*
X0318675Y0693118D01*
X0318624Y0693145D01*
X0318575Y0693175D01*
X0318528Y0693208D01*
X0318483Y0693244D01*
X0318441Y0693284D01*
X0318402Y0693326D01*
X0318366Y0693370D01*
X0318333Y0693417D01*
X0318303Y0693467D01*
X0318276Y0693518D01*
X0318253Y0693570D01*
X0318234Y0693624D01*
X0318218Y0693680D01*
X0318206Y0693736D01*
X0318198Y0693793D01*
X0318194Y0693850D01*
X0318193Y0693908D01*
X0318197Y0693965D01*
X0318204Y0694022D01*
X0318216Y0694079D01*
X0318231Y0694134D01*
X0318249Y0694189D01*
X0318272Y0694242D01*
X0318298Y0694293D01*
X0318327Y0694342D01*
X0318360Y0694390D01*
X0318396Y0694435D01*
X0318434Y0694477D01*
X0318476Y0694517D01*
X0318520Y0694554D01*
X0318567Y0694588D01*
X0318615Y0694619D01*
X0318666Y0694646D01*
X0318718Y0694670D01*
X0318772Y0694690D01*
X0318827Y0694706D01*
X0318883Y0694719D01*
X0318940Y0694728D01*
X0318998Y0694733D01*
X0319055Y0694734D01*
X0318236Y0691128D02*
X0318370Y0691082D01*
X0318505Y0691039D01*
X0318641Y0691000D01*
X0318778Y0690964D01*
X0318915Y0690932D01*
X0319054Y0690903D01*
X0319193Y0690877D01*
X0319333Y0690856D01*
X0319474Y0690837D01*
X0319614Y0690823D01*
X0319756Y0690812D01*
X0319897Y0690804D01*
X0320039Y0690801D01*
X0320039Y0690800D02*
X0320096Y0690801D01*
X0320154Y0690806D01*
X0320211Y0690815D01*
X0320267Y0690828D01*
X0320322Y0690844D01*
X0320376Y0690864D01*
X0320428Y0690888D01*
X0320479Y0690915D01*
X0320527Y0690946D01*
X0320574Y0690980D01*
X0320618Y0691017D01*
X0320660Y0691057D01*
X0320698Y0691099D01*
X0320734Y0691144D01*
X0320767Y0691192D01*
X0320796Y0691241D01*
X0320822Y0691292D01*
X0320845Y0691345D01*
X0320863Y0691400D01*
X0320878Y0691455D01*
X0320890Y0691512D01*
X0320897Y0691569D01*
X0320901Y0691626D01*
X0320900Y0691684D01*
X0320896Y0691741D01*
X0320888Y0691798D01*
X0320876Y0691854D01*
X0320860Y0691910D01*
X0320841Y0691964D01*
X0320818Y0692016D01*
X0320791Y0692067D01*
X0320761Y0692117D01*
X0320728Y0692164D01*
X0320692Y0692208D01*
X0320653Y0692250D01*
X0320611Y0692290D01*
X0320566Y0692326D01*
X0320519Y0692359D01*
X0320470Y0692389D01*
X0320419Y0692416D01*
X0320367Y0692439D01*
X0320530Y0694405D02*
X0320423Y0694451D01*
X0320314Y0694494D01*
X0320204Y0694534D01*
X0320092Y0694570D01*
X0319980Y0694602D01*
X0319866Y0694631D01*
X0319752Y0694657D01*
X0319637Y0694678D01*
X0319522Y0694697D01*
X0319405Y0694711D01*
X0319289Y0694722D01*
X0319172Y0694729D01*
X0319055Y0694733D01*
X0315359Y0693094D02*
X0311426Y0693094D01*
X0308755Y0694733D02*
X0307444Y0690800D01*
X0306133Y0694733D01*
X0248551Y0693422D02*
X0248551Y0692767D01*
X0245929Y0692767D01*
X0245929Y0693422D02*
X0245929Y0691783D01*
X0245931Y0691721D01*
X0245937Y0691660D01*
X0245946Y0691599D01*
X0245960Y0691539D01*
X0245977Y0691479D01*
X0245998Y0691421D01*
X0246023Y0691364D01*
X0246051Y0691309D01*
X0246082Y0691256D01*
X0246117Y0691205D01*
X0246155Y0691156D01*
X0246195Y0691110D01*
X0246239Y0691066D01*
X0246285Y0691026D01*
X0246334Y0690988D01*
X0246385Y0690953D01*
X0246438Y0690922D01*
X0246493Y0690894D01*
X0246550Y0690869D01*
X0246608Y0690848D01*
X0246668Y0690831D01*
X0246728Y0690817D01*
X0246789Y0690808D01*
X0246850Y0690802D01*
X0246912Y0690800D01*
X0248551Y0690800D01*
X0248551Y0693422D02*
X0248549Y0693493D01*
X0248543Y0693564D01*
X0248534Y0693634D01*
X0248520Y0693704D01*
X0248503Y0693773D01*
X0248482Y0693841D01*
X0248458Y0693907D01*
X0248430Y0693972D01*
X0248398Y0694036D01*
X0248363Y0694098D01*
X0248325Y0694158D01*
X0248284Y0694215D01*
X0248239Y0694271D01*
X0248192Y0694324D01*
X0248142Y0694374D01*
X0248089Y0694421D01*
X0248033Y0694466D01*
X0247976Y0694507D01*
X0247916Y0694545D01*
X0247854Y0694580D01*
X0247790Y0694612D01*
X0247725Y0694640D01*
X0247659Y0694664D01*
X0247591Y0694685D01*
X0247522Y0694702D01*
X0247452Y0694716D01*
X0247382Y0694725D01*
X0247311Y0694731D01*
X0247240Y0694733D01*
X0247169Y0694731D01*
X0247098Y0694725D01*
X0247028Y0694716D01*
X0246958Y0694702D01*
X0246889Y0694685D01*
X0246821Y0694664D01*
X0246755Y0694640D01*
X0246690Y0694612D01*
X0246626Y0694580D01*
X0246564Y0694545D01*
X0246504Y0694507D01*
X0246447Y0694466D01*
X0246391Y0694421D01*
X0246338Y0694374D01*
X0246288Y0694324D01*
X0246241Y0694271D01*
X0246196Y0694215D01*
X0246155Y0694158D01*
X0246117Y0694098D01*
X0246082Y0694036D01*
X0246050Y0693972D01*
X0246022Y0693907D01*
X0245998Y0693841D01*
X0245977Y0693773D01*
X0245960Y0693704D01*
X0245946Y0693634D01*
X0245937Y0693564D01*
X0245931Y0693493D01*
X0245929Y0693422D01*
X0243843Y0694078D02*
X0243843Y0694733D01*
X0241876Y0694733D01*
X0241876Y0690800D01*
X0238910Y0692111D02*
X0238910Y0693422D01*
X0238909Y0693422D02*
X0238907Y0693493D01*
X0238901Y0693564D01*
X0238892Y0693634D01*
X0238878Y0693704D01*
X0238861Y0693773D01*
X0238840Y0693841D01*
X0238816Y0693907D01*
X0238788Y0693972D01*
X0238756Y0694036D01*
X0238721Y0694098D01*
X0238683Y0694158D01*
X0238642Y0694215D01*
X0238597Y0694271D01*
X0238550Y0694324D01*
X0238500Y0694374D01*
X0238447Y0694421D01*
X0238391Y0694466D01*
X0238334Y0694507D01*
X0238274Y0694545D01*
X0238212Y0694580D01*
X0238148Y0694612D01*
X0238083Y0694640D01*
X0238017Y0694664D01*
X0237949Y0694685D01*
X0237880Y0694702D01*
X0237810Y0694716D01*
X0237740Y0694725D01*
X0237669Y0694731D01*
X0237598Y0694733D01*
X0237527Y0694731D01*
X0237456Y0694725D01*
X0237386Y0694716D01*
X0237316Y0694702D01*
X0237247Y0694685D01*
X0237179Y0694664D01*
X0237113Y0694640D01*
X0237048Y0694612D01*
X0236984Y0694580D01*
X0236922Y0694545D01*
X0236862Y0694507D01*
X0236805Y0694466D01*
X0236749Y0694421D01*
X0236696Y0694374D01*
X0236646Y0694324D01*
X0236599Y0694271D01*
X0236554Y0694215D01*
X0236513Y0694158D01*
X0236475Y0694098D01*
X0236440Y0694036D01*
X0236408Y0693972D01*
X0236380Y0693907D01*
X0236356Y0693841D01*
X0236335Y0693773D01*
X0236318Y0693704D01*
X0236304Y0693634D01*
X0236295Y0693564D01*
X0236289Y0693493D01*
X0236287Y0693422D01*
X0236287Y0692111D01*
X0236289Y0692040D01*
X0236295Y0691969D01*
X0236304Y0691899D01*
X0236318Y0691829D01*
X0236335Y0691760D01*
X0236356Y0691692D01*
X0236380Y0691626D01*
X0236408Y0691561D01*
X0236440Y0691497D01*
X0236475Y0691435D01*
X0236513Y0691375D01*
X0236554Y0691318D01*
X0236599Y0691262D01*
X0236646Y0691209D01*
X0236696Y0691159D01*
X0236749Y0691112D01*
X0236805Y0691067D01*
X0236862Y0691026D01*
X0236922Y0690988D01*
X0236984Y0690953D01*
X0237048Y0690921D01*
X0237113Y0690893D01*
X0237179Y0690869D01*
X0237247Y0690848D01*
X0237316Y0690831D01*
X0237386Y0690817D01*
X0237456Y0690808D01*
X0237527Y0690802D01*
X0237598Y0690800D01*
X0237669Y0690802D01*
X0237740Y0690808D01*
X0237810Y0690817D01*
X0237880Y0690831D01*
X0237949Y0690848D01*
X0238017Y0690869D01*
X0238083Y0690893D01*
X0238148Y0690921D01*
X0238212Y0690953D01*
X0238274Y0690988D01*
X0238334Y0691026D01*
X0238391Y0691067D01*
X0238447Y0691112D01*
X0238500Y0691159D01*
X0238550Y0691209D01*
X0238597Y0691262D01*
X0238642Y0691318D01*
X0238683Y0691375D01*
X0238721Y0691435D01*
X0238756Y0691497D01*
X0238788Y0691561D01*
X0238816Y0691626D01*
X0238840Y0691692D01*
X0238861Y0691760D01*
X0238878Y0691829D01*
X0238892Y0691899D01*
X0238901Y0691969D01*
X0238907Y0692040D01*
X0238909Y0692111D01*
X0233874Y0690800D02*
X0232563Y0690800D01*
X0232501Y0690802D01*
X0232440Y0690808D01*
X0232379Y0690817D01*
X0232319Y0690831D01*
X0232259Y0690848D01*
X0232201Y0690869D01*
X0232144Y0690894D01*
X0232089Y0690922D01*
X0232036Y0690953D01*
X0231985Y0690988D01*
X0231936Y0691026D01*
X0231890Y0691066D01*
X0231846Y0691110D01*
X0231806Y0691156D01*
X0231768Y0691205D01*
X0231733Y0691256D01*
X0231702Y0691309D01*
X0231674Y0691364D01*
X0231649Y0691421D01*
X0231628Y0691479D01*
X0231611Y0691539D01*
X0231597Y0691599D01*
X0231588Y0691660D01*
X0231582Y0691721D01*
X0231580Y0691783D01*
X0231580Y0693750D01*
X0231582Y0693812D01*
X0231588Y0693873D01*
X0231597Y0693934D01*
X0231611Y0693994D01*
X0231628Y0694054D01*
X0231649Y0694112D01*
X0231674Y0694169D01*
X0231702Y0694224D01*
X0231733Y0694277D01*
X0231768Y0694328D01*
X0231806Y0694377D01*
X0231846Y0694423D01*
X0231890Y0694467D01*
X0231936Y0694507D01*
X0231985Y0694545D01*
X0232036Y0694580D01*
X0232089Y0694611D01*
X0232144Y0694639D01*
X0232201Y0694664D01*
X0232259Y0694685D01*
X0232319Y0694702D01*
X0232379Y0694716D01*
X0232440Y0694725D01*
X0232501Y0694731D01*
X0232563Y0694733D01*
X0233874Y0694733D01*
X0228366Y0692439D02*
X0226727Y0693094D01*
X0226727Y0693095D02*
X0226675Y0693118D01*
X0226624Y0693145D01*
X0226575Y0693175D01*
X0226528Y0693208D01*
X0226483Y0693244D01*
X0226441Y0693284D01*
X0226402Y0693326D01*
X0226366Y0693370D01*
X0226333Y0693417D01*
X0226303Y0693467D01*
X0226276Y0693518D01*
X0226253Y0693570D01*
X0226234Y0693624D01*
X0226218Y0693680D01*
X0226206Y0693736D01*
X0226198Y0693793D01*
X0226194Y0693850D01*
X0226193Y0693908D01*
X0226197Y0693965D01*
X0226204Y0694022D01*
X0226216Y0694079D01*
X0226231Y0694134D01*
X0226249Y0694189D01*
X0226272Y0694242D01*
X0226298Y0694293D01*
X0226327Y0694342D01*
X0226360Y0694390D01*
X0226396Y0694435D01*
X0226434Y0694477D01*
X0226476Y0694517D01*
X0226520Y0694554D01*
X0226567Y0694588D01*
X0226615Y0694619D01*
X0226666Y0694646D01*
X0226718Y0694670D01*
X0226772Y0694690D01*
X0226827Y0694706D01*
X0226883Y0694719D01*
X0226940Y0694728D01*
X0226998Y0694733D01*
X0227055Y0694734D01*
X0226236Y0691128D02*
X0226370Y0691082D01*
X0226505Y0691039D01*
X0226641Y0691000D01*
X0226778Y0690964D01*
X0226915Y0690932D01*
X0227054Y0690903D01*
X0227193Y0690877D01*
X0227333Y0690856D01*
X0227474Y0690837D01*
X0227614Y0690823D01*
X0227756Y0690812D01*
X0227897Y0690804D01*
X0228039Y0690801D01*
X0228039Y0690800D02*
X0228096Y0690801D01*
X0228154Y0690806D01*
X0228211Y0690815D01*
X0228267Y0690828D01*
X0228322Y0690844D01*
X0228376Y0690864D01*
X0228428Y0690888D01*
X0228479Y0690915D01*
X0228527Y0690946D01*
X0228574Y0690980D01*
X0228618Y0691017D01*
X0228660Y0691057D01*
X0228698Y0691099D01*
X0228734Y0691144D01*
X0228767Y0691192D01*
X0228796Y0691241D01*
X0228822Y0691292D01*
X0228845Y0691345D01*
X0228863Y0691400D01*
X0228878Y0691455D01*
X0228890Y0691512D01*
X0228897Y0691569D01*
X0228901Y0691626D01*
X0228900Y0691684D01*
X0228896Y0691741D01*
X0228888Y0691798D01*
X0228876Y0691854D01*
X0228860Y0691910D01*
X0228841Y0691964D01*
X0228818Y0692016D01*
X0228791Y0692067D01*
X0228761Y0692117D01*
X0228728Y0692164D01*
X0228692Y0692208D01*
X0228653Y0692250D01*
X0228611Y0692290D01*
X0228566Y0692326D01*
X0228519Y0692359D01*
X0228470Y0692389D01*
X0228419Y0692416D01*
X0228367Y0692439D01*
X0228530Y0694405D02*
X0228423Y0694451D01*
X0228314Y0694494D01*
X0228204Y0694534D01*
X0228092Y0694570D01*
X0227980Y0694602D01*
X0227866Y0694631D01*
X0227752Y0694657D01*
X0227637Y0694678D01*
X0227522Y0694697D01*
X0227405Y0694711D01*
X0227289Y0694722D01*
X0227172Y0694729D01*
X0227055Y0694733D01*
X0223359Y0693094D02*
X0219426Y0693094D01*
X0216755Y0694733D02*
X0215444Y0690800D01*
X0214133Y0694733D01*
X0156551Y0693422D02*
X0156551Y0692767D01*
X0153929Y0692767D01*
X0153929Y0693422D02*
X0153929Y0691783D01*
X0153931Y0691721D01*
X0153937Y0691660D01*
X0153946Y0691599D01*
X0153960Y0691539D01*
X0153977Y0691479D01*
X0153998Y0691421D01*
X0154023Y0691364D01*
X0154051Y0691309D01*
X0154082Y0691256D01*
X0154117Y0691205D01*
X0154155Y0691156D01*
X0154195Y0691110D01*
X0154239Y0691066D01*
X0154285Y0691026D01*
X0154334Y0690988D01*
X0154385Y0690953D01*
X0154438Y0690922D01*
X0154493Y0690894D01*
X0154550Y0690869D01*
X0154608Y0690848D01*
X0154668Y0690831D01*
X0154728Y0690817D01*
X0154789Y0690808D01*
X0154850Y0690802D01*
X0154912Y0690800D01*
X0156551Y0690800D01*
X0156551Y0693422D02*
X0156549Y0693493D01*
X0156543Y0693564D01*
X0156534Y0693634D01*
X0156520Y0693704D01*
X0156503Y0693773D01*
X0156482Y0693841D01*
X0156458Y0693907D01*
X0156430Y0693972D01*
X0156398Y0694036D01*
X0156363Y0694098D01*
X0156325Y0694158D01*
X0156284Y0694215D01*
X0156239Y0694271D01*
X0156192Y0694324D01*
X0156142Y0694374D01*
X0156089Y0694421D01*
X0156033Y0694466D01*
X0155976Y0694507D01*
X0155916Y0694545D01*
X0155854Y0694580D01*
X0155790Y0694612D01*
X0155725Y0694640D01*
X0155659Y0694664D01*
X0155591Y0694685D01*
X0155522Y0694702D01*
X0155452Y0694716D01*
X0155382Y0694725D01*
X0155311Y0694731D01*
X0155240Y0694733D01*
X0155169Y0694731D01*
X0155098Y0694725D01*
X0155028Y0694716D01*
X0154958Y0694702D01*
X0154889Y0694685D01*
X0154821Y0694664D01*
X0154755Y0694640D01*
X0154690Y0694612D01*
X0154626Y0694580D01*
X0154564Y0694545D01*
X0154504Y0694507D01*
X0154447Y0694466D01*
X0154391Y0694421D01*
X0154338Y0694374D01*
X0154288Y0694324D01*
X0154241Y0694271D01*
X0154196Y0694215D01*
X0154155Y0694158D01*
X0154117Y0694098D01*
X0154082Y0694036D01*
X0154050Y0693972D01*
X0154022Y0693907D01*
X0153998Y0693841D01*
X0153977Y0693773D01*
X0153960Y0693704D01*
X0153946Y0693634D01*
X0153937Y0693564D01*
X0153931Y0693493D01*
X0153929Y0693422D01*
X0151843Y0694078D02*
X0151843Y0694733D01*
X0149876Y0694733D01*
X0149876Y0690800D01*
X0146910Y0692111D02*
X0146910Y0693422D01*
X0146909Y0693422D02*
X0146907Y0693493D01*
X0146901Y0693564D01*
X0146892Y0693634D01*
X0146878Y0693704D01*
X0146861Y0693773D01*
X0146840Y0693841D01*
X0146816Y0693907D01*
X0146788Y0693972D01*
X0146756Y0694036D01*
X0146721Y0694098D01*
X0146683Y0694158D01*
X0146642Y0694215D01*
X0146597Y0694271D01*
X0146550Y0694324D01*
X0146500Y0694374D01*
X0146447Y0694421D01*
X0146391Y0694466D01*
X0146334Y0694507D01*
X0146274Y0694545D01*
X0146212Y0694580D01*
X0146148Y0694612D01*
X0146083Y0694640D01*
X0146017Y0694664D01*
X0145949Y0694685D01*
X0145880Y0694702D01*
X0145810Y0694716D01*
X0145740Y0694725D01*
X0145669Y0694731D01*
X0145598Y0694733D01*
X0145527Y0694731D01*
X0145456Y0694725D01*
X0145386Y0694716D01*
X0145316Y0694702D01*
X0145247Y0694685D01*
X0145179Y0694664D01*
X0145113Y0694640D01*
X0145048Y0694612D01*
X0144984Y0694580D01*
X0144922Y0694545D01*
X0144862Y0694507D01*
X0144805Y0694466D01*
X0144749Y0694421D01*
X0144696Y0694374D01*
X0144646Y0694324D01*
X0144599Y0694271D01*
X0144554Y0694215D01*
X0144513Y0694158D01*
X0144475Y0694098D01*
X0144440Y0694036D01*
X0144408Y0693972D01*
X0144380Y0693907D01*
X0144356Y0693841D01*
X0144335Y0693773D01*
X0144318Y0693704D01*
X0144304Y0693634D01*
X0144295Y0693564D01*
X0144289Y0693493D01*
X0144287Y0693422D01*
X0144287Y0692111D01*
X0144289Y0692040D01*
X0144295Y0691969D01*
X0144304Y0691899D01*
X0144318Y0691829D01*
X0144335Y0691760D01*
X0144356Y0691692D01*
X0144380Y0691626D01*
X0144408Y0691561D01*
X0144440Y0691497D01*
X0144475Y0691435D01*
X0144513Y0691375D01*
X0144554Y0691318D01*
X0144599Y0691262D01*
X0144646Y0691209D01*
X0144696Y0691159D01*
X0144749Y0691112D01*
X0144805Y0691067D01*
X0144862Y0691026D01*
X0144922Y0690988D01*
X0144984Y0690953D01*
X0145048Y0690921D01*
X0145113Y0690893D01*
X0145179Y0690869D01*
X0145247Y0690848D01*
X0145316Y0690831D01*
X0145386Y0690817D01*
X0145456Y0690808D01*
X0145527Y0690802D01*
X0145598Y0690800D01*
X0145669Y0690802D01*
X0145740Y0690808D01*
X0145810Y0690817D01*
X0145880Y0690831D01*
X0145949Y0690848D01*
X0146017Y0690869D01*
X0146083Y0690893D01*
X0146148Y0690921D01*
X0146212Y0690953D01*
X0146274Y0690988D01*
X0146334Y0691026D01*
X0146391Y0691067D01*
X0146447Y0691112D01*
X0146500Y0691159D01*
X0146550Y0691209D01*
X0146597Y0691262D01*
X0146642Y0691318D01*
X0146683Y0691375D01*
X0146721Y0691435D01*
X0146756Y0691497D01*
X0146788Y0691561D01*
X0146816Y0691626D01*
X0146840Y0691692D01*
X0146861Y0691760D01*
X0146878Y0691829D01*
X0146892Y0691899D01*
X0146901Y0691969D01*
X0146907Y0692040D01*
X0146909Y0692111D01*
X0141874Y0690800D02*
X0140563Y0690800D01*
X0140501Y0690802D01*
X0140440Y0690808D01*
X0140379Y0690817D01*
X0140319Y0690831D01*
X0140259Y0690848D01*
X0140201Y0690869D01*
X0140144Y0690894D01*
X0140089Y0690922D01*
X0140036Y0690953D01*
X0139985Y0690988D01*
X0139936Y0691026D01*
X0139890Y0691066D01*
X0139846Y0691110D01*
X0139806Y0691156D01*
X0139768Y0691205D01*
X0139733Y0691256D01*
X0139702Y0691309D01*
X0139674Y0691364D01*
X0139649Y0691421D01*
X0139628Y0691479D01*
X0139611Y0691539D01*
X0139597Y0691599D01*
X0139588Y0691660D01*
X0139582Y0691721D01*
X0139580Y0691783D01*
X0139580Y0693750D01*
X0139582Y0693812D01*
X0139588Y0693873D01*
X0139597Y0693934D01*
X0139611Y0693994D01*
X0139628Y0694054D01*
X0139649Y0694112D01*
X0139674Y0694169D01*
X0139702Y0694224D01*
X0139733Y0694277D01*
X0139768Y0694328D01*
X0139806Y0694377D01*
X0139846Y0694423D01*
X0139890Y0694467D01*
X0139936Y0694507D01*
X0139985Y0694545D01*
X0140036Y0694580D01*
X0140089Y0694611D01*
X0140144Y0694639D01*
X0140201Y0694664D01*
X0140259Y0694685D01*
X0140319Y0694702D01*
X0140379Y0694716D01*
X0140440Y0694725D01*
X0140501Y0694731D01*
X0140563Y0694733D01*
X0141874Y0694733D01*
X0136366Y0692439D02*
X0134727Y0693094D01*
X0134727Y0693095D02*
X0134675Y0693118D01*
X0134624Y0693145D01*
X0134575Y0693175D01*
X0134528Y0693208D01*
X0134483Y0693244D01*
X0134441Y0693284D01*
X0134402Y0693326D01*
X0134366Y0693370D01*
X0134333Y0693417D01*
X0134303Y0693467D01*
X0134276Y0693518D01*
X0134253Y0693570D01*
X0134234Y0693624D01*
X0134218Y0693680D01*
X0134206Y0693736D01*
X0134198Y0693793D01*
X0134194Y0693850D01*
X0134193Y0693908D01*
X0134197Y0693965D01*
X0134204Y0694022D01*
X0134216Y0694079D01*
X0134231Y0694134D01*
X0134249Y0694189D01*
X0134272Y0694242D01*
X0134298Y0694293D01*
X0134327Y0694342D01*
X0134360Y0694390D01*
X0134396Y0694435D01*
X0134434Y0694477D01*
X0134476Y0694517D01*
X0134520Y0694554D01*
X0134567Y0694588D01*
X0134615Y0694619D01*
X0134666Y0694646D01*
X0134718Y0694670D01*
X0134772Y0694690D01*
X0134827Y0694706D01*
X0134883Y0694719D01*
X0134940Y0694728D01*
X0134998Y0694733D01*
X0135055Y0694734D01*
X0134236Y0691128D02*
X0134370Y0691082D01*
X0134505Y0691039D01*
X0134641Y0691000D01*
X0134778Y0690964D01*
X0134915Y0690932D01*
X0135054Y0690903D01*
X0135193Y0690877D01*
X0135333Y0690856D01*
X0135474Y0690837D01*
X0135614Y0690823D01*
X0135756Y0690812D01*
X0135897Y0690804D01*
X0136039Y0690801D01*
X0136039Y0690800D02*
X0136096Y0690801D01*
X0136154Y0690806D01*
X0136211Y0690815D01*
X0136267Y0690828D01*
X0136322Y0690844D01*
X0136376Y0690864D01*
X0136428Y0690888D01*
X0136479Y0690915D01*
X0136527Y0690946D01*
X0136574Y0690980D01*
X0136618Y0691017D01*
X0136660Y0691057D01*
X0136698Y0691099D01*
X0136734Y0691144D01*
X0136767Y0691192D01*
X0136796Y0691241D01*
X0136822Y0691292D01*
X0136845Y0691345D01*
X0136863Y0691400D01*
X0136878Y0691455D01*
X0136890Y0691512D01*
X0136897Y0691569D01*
X0136901Y0691626D01*
X0136900Y0691684D01*
X0136896Y0691741D01*
X0136888Y0691798D01*
X0136876Y0691854D01*
X0136860Y0691910D01*
X0136841Y0691964D01*
X0136818Y0692016D01*
X0136791Y0692067D01*
X0136761Y0692117D01*
X0136728Y0692164D01*
X0136692Y0692208D01*
X0136653Y0692250D01*
X0136611Y0692290D01*
X0136566Y0692326D01*
X0136519Y0692359D01*
X0136470Y0692389D01*
X0136419Y0692416D01*
X0136367Y0692439D01*
X0136530Y0694405D02*
X0136423Y0694451D01*
X0136314Y0694494D01*
X0136204Y0694534D01*
X0136092Y0694570D01*
X0135980Y0694602D01*
X0135866Y0694631D01*
X0135752Y0694657D01*
X0135637Y0694678D01*
X0135522Y0694697D01*
X0135405Y0694711D01*
X0135289Y0694722D01*
X0135172Y0694729D01*
X0135055Y0694733D01*
X0131359Y0693094D02*
X0127426Y0693094D01*
X0124755Y0694733D02*
X0123444Y0690800D01*
X0122133Y0694733D01*
X0064551Y0693422D02*
X0064551Y0692767D01*
X0061929Y0692767D01*
X0061929Y0693422D02*
X0061929Y0691783D01*
X0061931Y0691721D01*
X0061937Y0691660D01*
X0061946Y0691599D01*
X0061960Y0691539D01*
X0061977Y0691479D01*
X0061998Y0691421D01*
X0062023Y0691364D01*
X0062051Y0691309D01*
X0062082Y0691256D01*
X0062117Y0691205D01*
X0062155Y0691156D01*
X0062195Y0691110D01*
X0062239Y0691066D01*
X0062285Y0691026D01*
X0062334Y0690988D01*
X0062385Y0690953D01*
X0062438Y0690922D01*
X0062493Y0690894D01*
X0062550Y0690869D01*
X0062608Y0690848D01*
X0062668Y0690831D01*
X0062728Y0690817D01*
X0062789Y0690808D01*
X0062850Y0690802D01*
X0062912Y0690800D01*
X0064551Y0690800D01*
X0064551Y0693422D02*
X0064549Y0693493D01*
X0064543Y0693564D01*
X0064534Y0693634D01*
X0064520Y0693704D01*
X0064503Y0693773D01*
X0064482Y0693841D01*
X0064458Y0693907D01*
X0064430Y0693972D01*
X0064398Y0694036D01*
X0064363Y0694098D01*
X0064325Y0694158D01*
X0064284Y0694215D01*
X0064239Y0694271D01*
X0064192Y0694324D01*
X0064142Y0694374D01*
X0064089Y0694421D01*
X0064033Y0694466D01*
X0063976Y0694507D01*
X0063916Y0694545D01*
X0063854Y0694580D01*
X0063790Y0694612D01*
X0063725Y0694640D01*
X0063659Y0694664D01*
X0063591Y0694685D01*
X0063522Y0694702D01*
X0063452Y0694716D01*
X0063382Y0694725D01*
X0063311Y0694731D01*
X0063240Y0694733D01*
X0063169Y0694731D01*
X0063098Y0694725D01*
X0063028Y0694716D01*
X0062958Y0694702D01*
X0062889Y0694685D01*
X0062821Y0694664D01*
X0062755Y0694640D01*
X0062690Y0694612D01*
X0062626Y0694580D01*
X0062564Y0694545D01*
X0062504Y0694507D01*
X0062447Y0694466D01*
X0062391Y0694421D01*
X0062338Y0694374D01*
X0062288Y0694324D01*
X0062241Y0694271D01*
X0062196Y0694215D01*
X0062155Y0694158D01*
X0062117Y0694098D01*
X0062082Y0694036D01*
X0062050Y0693972D01*
X0062022Y0693907D01*
X0061998Y0693841D01*
X0061977Y0693773D01*
X0061960Y0693704D01*
X0061946Y0693634D01*
X0061937Y0693564D01*
X0061931Y0693493D01*
X0061929Y0693422D01*
X0059843Y0694078D02*
X0059843Y0694733D01*
X0057876Y0694733D01*
X0057876Y0690800D01*
X0054910Y0692111D02*
X0054910Y0693422D01*
X0054909Y0693422D02*
X0054907Y0693493D01*
X0054901Y0693564D01*
X0054892Y0693634D01*
X0054878Y0693704D01*
X0054861Y0693773D01*
X0054840Y0693841D01*
X0054816Y0693907D01*
X0054788Y0693972D01*
X0054756Y0694036D01*
X0054721Y0694098D01*
X0054683Y0694158D01*
X0054642Y0694215D01*
X0054597Y0694271D01*
X0054550Y0694324D01*
X0054500Y0694374D01*
X0054447Y0694421D01*
X0054391Y0694466D01*
X0054334Y0694507D01*
X0054274Y0694545D01*
X0054212Y0694580D01*
X0054148Y0694612D01*
X0054083Y0694640D01*
X0054017Y0694664D01*
X0053949Y0694685D01*
X0053880Y0694702D01*
X0053810Y0694716D01*
X0053740Y0694725D01*
X0053669Y0694731D01*
X0053598Y0694733D01*
X0053527Y0694731D01*
X0053456Y0694725D01*
X0053386Y0694716D01*
X0053316Y0694702D01*
X0053247Y0694685D01*
X0053179Y0694664D01*
X0053113Y0694640D01*
X0053048Y0694612D01*
X0052984Y0694580D01*
X0052922Y0694545D01*
X0052862Y0694507D01*
X0052805Y0694466D01*
X0052749Y0694421D01*
X0052696Y0694374D01*
X0052646Y0694324D01*
X0052599Y0694271D01*
X0052554Y0694215D01*
X0052513Y0694158D01*
X0052475Y0694098D01*
X0052440Y0694036D01*
X0052408Y0693972D01*
X0052380Y0693907D01*
X0052356Y0693841D01*
X0052335Y0693773D01*
X0052318Y0693704D01*
X0052304Y0693634D01*
X0052295Y0693564D01*
X0052289Y0693493D01*
X0052287Y0693422D01*
X0052287Y0692111D01*
X0052289Y0692040D01*
X0052295Y0691969D01*
X0052304Y0691899D01*
X0052318Y0691829D01*
X0052335Y0691760D01*
X0052356Y0691692D01*
X0052380Y0691626D01*
X0052408Y0691561D01*
X0052440Y0691497D01*
X0052475Y0691435D01*
X0052513Y0691375D01*
X0052554Y0691318D01*
X0052599Y0691262D01*
X0052646Y0691209D01*
X0052696Y0691159D01*
X0052749Y0691112D01*
X0052805Y0691067D01*
X0052862Y0691026D01*
X0052922Y0690988D01*
X0052984Y0690953D01*
X0053048Y0690921D01*
X0053113Y0690893D01*
X0053179Y0690869D01*
X0053247Y0690848D01*
X0053316Y0690831D01*
X0053386Y0690817D01*
X0053456Y0690808D01*
X0053527Y0690802D01*
X0053598Y0690800D01*
X0053669Y0690802D01*
X0053740Y0690808D01*
X0053810Y0690817D01*
X0053880Y0690831D01*
X0053949Y0690848D01*
X0054017Y0690869D01*
X0054083Y0690893D01*
X0054148Y0690921D01*
X0054212Y0690953D01*
X0054274Y0690988D01*
X0054334Y0691026D01*
X0054391Y0691067D01*
X0054447Y0691112D01*
X0054500Y0691159D01*
X0054550Y0691209D01*
X0054597Y0691262D01*
X0054642Y0691318D01*
X0054683Y0691375D01*
X0054721Y0691435D01*
X0054756Y0691497D01*
X0054788Y0691561D01*
X0054816Y0691626D01*
X0054840Y0691692D01*
X0054861Y0691760D01*
X0054878Y0691829D01*
X0054892Y0691899D01*
X0054901Y0691969D01*
X0054907Y0692040D01*
X0054909Y0692111D01*
X0049874Y0690800D02*
X0048563Y0690800D01*
X0048501Y0690802D01*
X0048440Y0690808D01*
X0048379Y0690817D01*
X0048319Y0690831D01*
X0048259Y0690848D01*
X0048201Y0690869D01*
X0048144Y0690894D01*
X0048089Y0690922D01*
X0048036Y0690953D01*
X0047985Y0690988D01*
X0047936Y0691026D01*
X0047890Y0691066D01*
X0047846Y0691110D01*
X0047806Y0691156D01*
X0047768Y0691205D01*
X0047733Y0691256D01*
X0047702Y0691309D01*
X0047674Y0691364D01*
X0047649Y0691421D01*
X0047628Y0691479D01*
X0047611Y0691539D01*
X0047597Y0691599D01*
X0047588Y0691660D01*
X0047582Y0691721D01*
X0047580Y0691783D01*
X0047580Y0693750D01*
X0047582Y0693812D01*
X0047588Y0693873D01*
X0047597Y0693934D01*
X0047611Y0693994D01*
X0047628Y0694054D01*
X0047649Y0694112D01*
X0047674Y0694169D01*
X0047702Y0694224D01*
X0047733Y0694277D01*
X0047768Y0694328D01*
X0047806Y0694377D01*
X0047846Y0694423D01*
X0047890Y0694467D01*
X0047936Y0694507D01*
X0047985Y0694545D01*
X0048036Y0694580D01*
X0048089Y0694611D01*
X0048144Y0694639D01*
X0048201Y0694664D01*
X0048259Y0694685D01*
X0048319Y0694702D01*
X0048379Y0694716D01*
X0048440Y0694725D01*
X0048501Y0694731D01*
X0048563Y0694733D01*
X0049874Y0694733D01*
X0044366Y0692439D02*
X0042727Y0693094D01*
X0042727Y0693095D02*
X0042675Y0693118D01*
X0042624Y0693145D01*
X0042575Y0693175D01*
X0042528Y0693208D01*
X0042483Y0693244D01*
X0042441Y0693284D01*
X0042402Y0693326D01*
X0042366Y0693370D01*
X0042333Y0693417D01*
X0042303Y0693467D01*
X0042276Y0693518D01*
X0042253Y0693570D01*
X0042234Y0693624D01*
X0042218Y0693680D01*
X0042206Y0693736D01*
X0042198Y0693793D01*
X0042194Y0693850D01*
X0042193Y0693908D01*
X0042197Y0693965D01*
X0042204Y0694022D01*
X0042216Y0694079D01*
X0042231Y0694134D01*
X0042249Y0694189D01*
X0042272Y0694242D01*
X0042298Y0694293D01*
X0042327Y0694342D01*
X0042360Y0694390D01*
X0042396Y0694435D01*
X0042434Y0694477D01*
X0042476Y0694517D01*
X0042520Y0694554D01*
X0042567Y0694588D01*
X0042615Y0694619D01*
X0042666Y0694646D01*
X0042718Y0694670D01*
X0042772Y0694690D01*
X0042827Y0694706D01*
X0042883Y0694719D01*
X0042940Y0694728D01*
X0042998Y0694733D01*
X0043055Y0694734D01*
X0042236Y0691128D02*
X0042370Y0691082D01*
X0042505Y0691039D01*
X0042641Y0691000D01*
X0042778Y0690964D01*
X0042915Y0690932D01*
X0043054Y0690903D01*
X0043193Y0690877D01*
X0043333Y0690856D01*
X0043474Y0690837D01*
X0043614Y0690823D01*
X0043756Y0690812D01*
X0043897Y0690804D01*
X0044039Y0690801D01*
X0044039Y0690800D02*
X0044096Y0690801D01*
X0044154Y0690806D01*
X0044211Y0690815D01*
X0044267Y0690828D01*
X0044322Y0690844D01*
X0044376Y0690864D01*
X0044428Y0690888D01*
X0044479Y0690915D01*
X0044527Y0690946D01*
X0044574Y0690980D01*
X0044618Y0691017D01*
X0044660Y0691057D01*
X0044698Y0691099D01*
X0044734Y0691144D01*
X0044767Y0691192D01*
X0044796Y0691241D01*
X0044822Y0691292D01*
X0044845Y0691345D01*
X0044863Y0691400D01*
X0044878Y0691455D01*
X0044890Y0691512D01*
X0044897Y0691569D01*
X0044901Y0691626D01*
X0044900Y0691684D01*
X0044896Y0691741D01*
X0044888Y0691798D01*
X0044876Y0691854D01*
X0044860Y0691910D01*
X0044841Y0691964D01*
X0044818Y0692016D01*
X0044791Y0692067D01*
X0044761Y0692117D01*
X0044728Y0692164D01*
X0044692Y0692208D01*
X0044653Y0692250D01*
X0044611Y0692290D01*
X0044566Y0692326D01*
X0044519Y0692359D01*
X0044470Y0692389D01*
X0044419Y0692416D01*
X0044367Y0692439D01*
X0044530Y0694405D02*
X0044423Y0694451D01*
X0044314Y0694494D01*
X0044204Y0694534D01*
X0044092Y0694570D01*
X0043980Y0694602D01*
X0043866Y0694631D01*
X0043752Y0694657D01*
X0043637Y0694678D01*
X0043522Y0694697D01*
X0043405Y0694711D01*
X0043289Y0694722D01*
X0043172Y0694729D01*
X0043055Y0694733D01*
X0039359Y0693094D02*
X0035426Y0693094D01*
X0032755Y0694733D02*
X0031444Y0690800D01*
X0030133Y0694733D01*
M02*
