G75*
%MOIN*%
%OFA0B0*%
%FSLAX25Y25*%
%IPPOS*%
%LPD*%
%AMOC8*
5,1,8,0,0,1.08239X$1,22.5*
%
%ADD10R,0.04724X0.07874*%
%ADD11R,0.02362X0.05315*%
%ADD12R,0.02362X0.06102*%
%ADD13R,0.04331X0.03937*%
D10*
X0082318Y0034281D03*
X0104365Y0034281D03*
X0104452Y0101348D03*
X0082405Y0101348D03*
X0082232Y0156152D03*
X0104279Y0156152D03*
X0104365Y0223219D03*
X0104365Y0236281D03*
X0082318Y0236281D03*
X0082318Y0223219D03*
X0082405Y0303348D03*
X0104452Y0303348D03*
X0104279Y0358152D03*
X0082232Y0358152D03*
X0082318Y0425219D03*
X0082318Y0438281D03*
X0104365Y0438281D03*
X0104365Y0425219D03*
X0174318Y0425219D03*
X0174318Y0438281D03*
X0196365Y0438281D03*
X0196365Y0425219D03*
X0196279Y0358152D03*
X0174232Y0358152D03*
X0174405Y0303348D03*
X0196452Y0303348D03*
X0196365Y0236281D03*
X0196365Y0223219D03*
X0174318Y0223219D03*
X0174318Y0236281D03*
X0174232Y0156152D03*
X0196279Y0156152D03*
X0196452Y0101348D03*
X0174405Y0101348D03*
X0174318Y0034281D03*
X0196365Y0034281D03*
X0266318Y0034281D03*
X0288365Y0034281D03*
X0288452Y0101348D03*
X0266405Y0101348D03*
X0266232Y0156152D03*
X0288279Y0156152D03*
X0288365Y0223219D03*
X0288365Y0236281D03*
X0266318Y0236281D03*
X0266318Y0223219D03*
X0266405Y0303348D03*
X0288452Y0303348D03*
X0288279Y0358152D03*
X0266232Y0358152D03*
X0266318Y0425219D03*
X0266318Y0438281D03*
X0288365Y0438281D03*
X0288365Y0425219D03*
X0358318Y0425219D03*
X0358318Y0438281D03*
X0380365Y0438281D03*
X0380365Y0425219D03*
X0380279Y0358152D03*
X0358232Y0358152D03*
X0358405Y0303348D03*
X0380452Y0303348D03*
X0380365Y0236281D03*
X0380365Y0223219D03*
X0358318Y0223219D03*
X0358318Y0236281D03*
X0358232Y0156152D03*
X0380279Y0156152D03*
X0380452Y0101348D03*
X0358405Y0101348D03*
X0358318Y0034281D03*
X0380365Y0034281D03*
X0450318Y0034281D03*
X0472365Y0034281D03*
X0472452Y0101348D03*
X0450405Y0101348D03*
X0450232Y0156152D03*
X0472279Y0156152D03*
X0472365Y0223219D03*
X0472365Y0236281D03*
X0450318Y0236281D03*
X0450318Y0223219D03*
X0450405Y0303348D03*
X0472452Y0303348D03*
X0472279Y0358152D03*
X0450232Y0358152D03*
X0450318Y0425219D03*
X0450318Y0438281D03*
X0472365Y0438281D03*
X0472365Y0425219D03*
X0472452Y0505348D03*
X0450405Y0505348D03*
X0450232Y0560152D03*
X0472279Y0560152D03*
X0472365Y0627219D03*
X0450318Y0627219D03*
X0380365Y0627219D03*
X0358318Y0627219D03*
X0358232Y0560152D03*
X0380279Y0560152D03*
X0380452Y0505348D03*
X0358405Y0505348D03*
X0288452Y0505348D03*
X0266405Y0505348D03*
X0266232Y0560152D03*
X0288279Y0560152D03*
X0288365Y0627219D03*
X0266318Y0627219D03*
X0196365Y0627219D03*
X0174318Y0627219D03*
X0174232Y0560152D03*
X0196279Y0560152D03*
X0196452Y0505348D03*
X0174405Y0505348D03*
X0104452Y0505348D03*
X0082405Y0505348D03*
X0082232Y0560152D03*
X0104279Y0560152D03*
X0104365Y0627219D03*
X0082318Y0627219D03*
D11*
X0087436Y0612750D03*
X0091373Y0612750D03*
X0095310Y0612750D03*
X0099247Y0612750D03*
X0179436Y0612750D03*
X0183373Y0612750D03*
X0187310Y0612750D03*
X0191247Y0612750D03*
X0271436Y0612750D03*
X0275373Y0612750D03*
X0279310Y0612750D03*
X0283247Y0612750D03*
X0363436Y0612750D03*
X0367373Y0612750D03*
X0371310Y0612750D03*
X0375247Y0612750D03*
X0455436Y0612750D03*
X0459373Y0612750D03*
X0463310Y0612750D03*
X0467247Y0612750D03*
X0467247Y0452750D03*
X0463310Y0452750D03*
X0459373Y0452750D03*
X0455436Y0452750D03*
X0455436Y0410750D03*
X0459373Y0410750D03*
X0463310Y0410750D03*
X0467247Y0410750D03*
X0375247Y0410750D03*
X0371310Y0410750D03*
X0367373Y0410750D03*
X0363436Y0410750D03*
X0363436Y0452750D03*
X0367373Y0452750D03*
X0371310Y0452750D03*
X0375247Y0452750D03*
X0283247Y0452750D03*
X0279310Y0452750D03*
X0275373Y0452750D03*
X0271436Y0452750D03*
X0271436Y0410750D03*
X0275373Y0410750D03*
X0279310Y0410750D03*
X0283247Y0410750D03*
X0191247Y0410750D03*
X0187310Y0410750D03*
X0183373Y0410750D03*
X0179436Y0410750D03*
X0179436Y0452750D03*
X0183373Y0452750D03*
X0187310Y0452750D03*
X0191247Y0452750D03*
X0099247Y0452750D03*
X0095310Y0452750D03*
X0091373Y0452750D03*
X0087436Y0452750D03*
X0087436Y0410750D03*
X0091373Y0410750D03*
X0095310Y0410750D03*
X0099247Y0410750D03*
X0099247Y0250750D03*
X0095310Y0250750D03*
X0091373Y0250750D03*
X0087436Y0250750D03*
X0087436Y0208750D03*
X0091373Y0208750D03*
X0095310Y0208750D03*
X0099247Y0208750D03*
X0179436Y0208750D03*
X0183373Y0208750D03*
X0187310Y0208750D03*
X0191247Y0208750D03*
X0191247Y0250750D03*
X0187310Y0250750D03*
X0183373Y0250750D03*
X0179436Y0250750D03*
X0271436Y0250750D03*
X0275373Y0250750D03*
X0279310Y0250750D03*
X0283247Y0250750D03*
X0283247Y0208750D03*
X0279310Y0208750D03*
X0275373Y0208750D03*
X0271436Y0208750D03*
X0363436Y0208750D03*
X0367373Y0208750D03*
X0371310Y0208750D03*
X0375247Y0208750D03*
X0375247Y0250750D03*
X0371310Y0250750D03*
X0367373Y0250750D03*
X0363436Y0250750D03*
X0455436Y0250750D03*
X0459373Y0250750D03*
X0463310Y0250750D03*
X0467247Y0250750D03*
X0467247Y0208750D03*
X0463310Y0208750D03*
X0459373Y0208750D03*
X0455436Y0208750D03*
X0455436Y0048750D03*
X0459373Y0048750D03*
X0463310Y0048750D03*
X0467247Y0048750D03*
X0375247Y0048750D03*
X0371310Y0048750D03*
X0367373Y0048750D03*
X0363436Y0048750D03*
X0283247Y0048750D03*
X0279310Y0048750D03*
X0275373Y0048750D03*
X0271436Y0048750D03*
X0191247Y0048750D03*
X0187310Y0048750D03*
X0183373Y0048750D03*
X0179436Y0048750D03*
X0099247Y0048750D03*
X0095310Y0048750D03*
X0091373Y0048750D03*
X0087436Y0048750D03*
D12*
X0087523Y0091801D03*
X0091460Y0091801D03*
X0095397Y0091801D03*
X0099334Y0091801D03*
X0099161Y0165699D03*
X0095224Y0165699D03*
X0091287Y0165699D03*
X0087350Y0165699D03*
X0179350Y0165699D03*
X0183287Y0165699D03*
X0187224Y0165699D03*
X0191161Y0165699D03*
X0191334Y0091801D03*
X0187397Y0091801D03*
X0183460Y0091801D03*
X0179523Y0091801D03*
X0271523Y0091801D03*
X0275460Y0091801D03*
X0279397Y0091801D03*
X0283334Y0091801D03*
X0283161Y0165699D03*
X0279224Y0165699D03*
X0275287Y0165699D03*
X0271350Y0165699D03*
X0363350Y0165699D03*
X0367287Y0165699D03*
X0371224Y0165699D03*
X0375161Y0165699D03*
X0375334Y0091801D03*
X0371397Y0091801D03*
X0367460Y0091801D03*
X0363523Y0091801D03*
X0455523Y0091801D03*
X0459460Y0091801D03*
X0463397Y0091801D03*
X0467334Y0091801D03*
X0467161Y0165699D03*
X0463224Y0165699D03*
X0459287Y0165699D03*
X0455350Y0165699D03*
X0455523Y0293801D03*
X0459460Y0293801D03*
X0463397Y0293801D03*
X0467334Y0293801D03*
X0467161Y0367699D03*
X0463224Y0367699D03*
X0459287Y0367699D03*
X0455350Y0367699D03*
X0375161Y0367699D03*
X0371224Y0367699D03*
X0367287Y0367699D03*
X0363350Y0367699D03*
X0363523Y0293801D03*
X0367460Y0293801D03*
X0371397Y0293801D03*
X0375334Y0293801D03*
X0283334Y0293801D03*
X0279397Y0293801D03*
X0275460Y0293801D03*
X0271523Y0293801D03*
X0271350Y0367699D03*
X0275287Y0367699D03*
X0279224Y0367699D03*
X0283161Y0367699D03*
X0191161Y0367699D03*
X0187224Y0367699D03*
X0183287Y0367699D03*
X0179350Y0367699D03*
X0179523Y0293801D03*
X0183460Y0293801D03*
X0187397Y0293801D03*
X0191334Y0293801D03*
X0099334Y0293801D03*
X0095397Y0293801D03*
X0091460Y0293801D03*
X0087523Y0293801D03*
X0087350Y0367699D03*
X0091287Y0367699D03*
X0095224Y0367699D03*
X0099161Y0367699D03*
X0099334Y0495801D03*
X0095397Y0495801D03*
X0091460Y0495801D03*
X0087523Y0495801D03*
X0087350Y0569699D03*
X0091287Y0569699D03*
X0095224Y0569699D03*
X0099161Y0569699D03*
X0179350Y0569699D03*
X0183287Y0569699D03*
X0187224Y0569699D03*
X0191161Y0569699D03*
X0191334Y0495801D03*
X0187397Y0495801D03*
X0183460Y0495801D03*
X0179523Y0495801D03*
X0271523Y0495801D03*
X0275460Y0495801D03*
X0279397Y0495801D03*
X0283334Y0495801D03*
X0283161Y0569699D03*
X0279224Y0569699D03*
X0275287Y0569699D03*
X0271350Y0569699D03*
X0363350Y0569699D03*
X0367287Y0569699D03*
X0371224Y0569699D03*
X0375161Y0569699D03*
X0375334Y0495801D03*
X0371397Y0495801D03*
X0367460Y0495801D03*
X0363523Y0495801D03*
X0455523Y0495801D03*
X0459460Y0495801D03*
X0463397Y0495801D03*
X0467334Y0495801D03*
X0467161Y0569699D03*
X0463224Y0569699D03*
X0459287Y0569699D03*
X0455350Y0569699D03*
D13*
X0449688Y0532750D03*
X0442995Y0532750D03*
X0472995Y0532750D03*
X0479688Y0532750D03*
X0387688Y0532750D03*
X0380995Y0532750D03*
X0357688Y0532750D03*
X0350995Y0532750D03*
X0295688Y0532750D03*
X0288995Y0532750D03*
X0265688Y0532750D03*
X0258995Y0532750D03*
X0203688Y0532750D03*
X0196995Y0532750D03*
X0173688Y0532750D03*
X0166995Y0532750D03*
X0111688Y0532750D03*
X0104995Y0532750D03*
X0081688Y0532750D03*
X0074995Y0532750D03*
X0074995Y0330750D03*
X0081688Y0330750D03*
X0104995Y0330750D03*
X0111688Y0330750D03*
X0166995Y0330750D03*
X0173688Y0330750D03*
X0196995Y0330750D03*
X0203688Y0330750D03*
X0258995Y0330750D03*
X0265688Y0330750D03*
X0288995Y0330750D03*
X0295688Y0330750D03*
X0350995Y0330750D03*
X0357688Y0330750D03*
X0380995Y0330750D03*
X0387688Y0330750D03*
X0442995Y0330750D03*
X0449688Y0330750D03*
X0472995Y0330750D03*
X0479688Y0330750D03*
X0479688Y0128750D03*
X0472995Y0128750D03*
X0449688Y0128750D03*
X0442995Y0128750D03*
X0387688Y0128750D03*
X0380995Y0128750D03*
X0357688Y0128750D03*
X0350995Y0128750D03*
X0295688Y0128750D03*
X0288995Y0128750D03*
X0265688Y0128750D03*
X0258995Y0128750D03*
X0203688Y0128750D03*
X0196995Y0128750D03*
X0173688Y0128750D03*
X0166995Y0128750D03*
X0111688Y0128750D03*
X0104995Y0128750D03*
X0081688Y0128750D03*
X0074995Y0128750D03*
M02*
